<svg width="218" height="27" viewBox="0 0 218 27" fill="none" xmlns="http://www.w3.org/2000/svg">
<path fill-rule="evenodd" clip-rule="evenodd" d="M7.51173 9.94132C7.81961 10.2184 7.84457 10.6926 7.56748 11.0005L7.55748 11.0116C7.28038 11.3195 6.80616 11.3445 6.49828 11.0674C6.1904 10.7903 6.16544 10.3161 6.44254 10.0082L6.45254 9.99706C6.72963 9.68918 7.20385 9.66422 7.51173 9.94132Z" fill="#33836E"/>
<path fill-rule="evenodd" clip-rule="evenodd" d="M11.5117 9.94132C11.8196 10.2184 11.8446 10.6926 11.5675 11.0005L11.5575 11.0116C11.2804 11.3195 10.8062 11.3445 10.4983 11.0674C10.1904 10.7903 10.1654 10.3161 10.4425 10.0082L10.4525 9.99706C10.7296 9.68918 11.2038 9.66422 11.5117 9.94132Z" fill="#33836E"/>
<path fill-rule="evenodd" clip-rule="evenodd" d="M7.51173 13.9413C7.81961 14.2184 7.84457 14.6926 7.56748 15.0005L7.55748 15.0116C7.28038 15.3195 6.80616 15.3445 6.49828 15.0674C6.1904 14.7903 6.16544 14.3161 6.44254 14.0082L6.45254 13.9971C6.72963 13.6892 7.20385 13.6642 7.51173 13.9413Z" fill="#33836E"/>
<path fill-rule="evenodd" clip-rule="evenodd" d="M11.5117 13.9413C11.8196 14.2184 11.8446 14.6926 11.5675 15.0005L11.5575 15.0116C11.2804 15.3195 10.8062 15.3445 10.4983 15.0674C10.1904 14.7903 10.1654 14.3161 10.4425 14.0082L10.4525 13.9971C10.7296 13.6892 11.2038 13.6642 11.5117 13.9413Z" fill="#33836E"/>
<path fill-rule="evenodd" clip-rule="evenodd" d="M7.51173 17.9413C7.81961 18.2184 7.84457 18.6926 7.56748 19.0005L7.55748 19.0116C7.28038 19.3195 6.80616 19.3445 6.49828 19.0674C6.1904 18.7903 6.16544 18.3161 6.44254 18.0082L6.45254 17.9971C6.72963 17.6892 7.20385 17.6642 7.51173 17.9413Z" fill="#33836E"/>
<path fill-rule="evenodd" clip-rule="evenodd" d="M11.5117 17.9413C11.8196 18.2184 11.8446 18.6926 11.5675 19.0005L11.5575 19.0116C11.2804 19.3195 10.8062 19.3445 10.4983 19.0674C10.1904 18.7903 10.1654 18.3161 10.4425 18.0082L10.4525 17.9971C10.7296 17.6892 11.2038 17.6642 11.5117 17.9413Z" fill="#33836E"/>
<path fill-rule="evenodd" clip-rule="evenodd" d="M20.25 21.75V11.25H15.75V13.75H17C17.4142 13.75 17.75 14.0858 17.75 14.5C17.75 14.9142 17.4142 15.25 17 15.25H15.75V17.75H17C17.4142 17.75 17.75 18.0858 17.75 18.5C17.75 18.9142 17.4142 19.25 17 19.25H15.75V21.75H20.25ZM14.25 21.75V5.25H9.75V6.5C9.75 6.91421 9.41421 7.25 9 7.25H3.75V21.75H14.25ZM15.75 9.75H20.4C21.1456 9.75 21.75 10.3544 21.75 11.1V21.9C21.75 22.6456 21.1456 23.25 20.4 23.25H3.6C2.85442 23.25 2.25 22.6456 2.25 21.9V7.1C2.25 6.35442 2.85442 5.75 3.6 5.75H8.25V5.1C8.25 4.35442 8.85442 3.75 9.6 3.75H14.4C15.1456 3.75 15.75 4.35442 15.75 5.1V9.75Z" fill="#33836E"/>
<path d="M40.5 17V5.57812H49.2734V17H47.4141V7.17188H42.375V17H40.5ZM59.7656 12.6562C59.7656 13.375 59.6719 14.013 59.4844 14.5703C59.2969 15.1276 59.0234 15.599 58.6641 15.9844C58.3047 16.3646 57.8724 16.6562 57.3672 16.8594C56.862 17.0573 56.2917 17.1562 55.6562 17.1562C55.0625 17.1562 54.5182 17.0573 54.0234 16.8594C53.5286 16.6562 53.099 16.3646 52.7344 15.9844C52.375 15.599 52.0964 15.1276 51.8984 14.5703C51.7005 14.013 51.6016 13.375 51.6016 12.6562C51.6016 11.7031 51.7656 10.8958 52.0938 10.2344C52.4271 9.56771 52.901 9.0599 53.5156 8.71094C54.1302 8.36198 54.862 8.1875 55.7109 8.1875C56.5078 8.1875 57.2109 8.36198 57.8203 8.71094C58.4297 9.0599 58.9062 9.56771 59.25 10.2344C59.5938 10.901 59.7656 11.7083 59.7656 12.6562ZM53.4922 12.6562C53.4922 13.2865 53.5677 13.8255 53.7188 14.2734C53.875 14.7214 54.1146 15.0651 54.4375 15.3047C54.7604 15.5391 55.1771 15.6562 55.6875 15.6562C56.1979 15.6562 56.6146 15.5391 56.9375 15.3047C57.2604 15.0651 57.4974 14.7214 57.6484 14.2734C57.7995 13.8255 57.875 13.2865 57.875 12.6562C57.875 12.026 57.7995 11.4922 57.6484 11.0547C57.4974 10.612 57.2604 10.276 56.9375 10.0469C56.6146 9.8125 56.1953 9.69531 55.6797 9.69531C54.9193 9.69531 54.3646 9.95052 54.0156 10.4609C53.6667 10.9714 53.4922 11.7031 53.4922 12.6562ZM77.25 8.35156L73.8594 12.5234L77.5547 17H75.5391L72 12.6094V17H70.2891V12.6094L66.75 17H64.7344L68.4297 12.5234L65.0391 8.35156H66.9844L70.2891 12.5469V8.35156H72V12.5469L75.3125 8.35156H77.25ZM80.6719 8.35156V12.7656C80.6719 12.9062 80.6667 13.0859 80.6562 13.3047C80.651 13.5182 80.6406 13.7422 80.625 13.9766C80.6094 14.2057 80.5938 14.4167 80.5781 14.6094C80.5625 14.8021 80.5495 14.9453 80.5391 15.0391L84.8906 8.35156H87.125V17H85.3672V12.6328C85.3672 12.4036 85.3724 12.138 85.3828 11.8359C85.3984 11.5339 85.4141 11.2422 85.4297 10.9609C85.4505 10.6797 85.4635 10.4661 85.4688 10.3203L81.1328 17H78.9062V8.35156H80.6719ZM96.8828 17H95.0312V9.78906H92.6328C92.5286 11.1016 92.3984 12.224 92.2422 13.1562C92.0859 14.0885 91.8906 14.849 91.6562 15.4375C91.4219 16.0208 91.1328 16.4479 90.7891 16.7188C90.4453 16.9896 90.0312 17.125 89.5469 17.125C89.3333 17.125 89.1406 17.1094 88.9688 17.0781C88.7969 17.0521 88.6432 17.0104 88.5078 16.9531V15.5078C88.5964 15.5391 88.6927 15.5651 88.7969 15.5859C88.901 15.6068 89.0078 15.6172 89.1172 15.6172C89.3099 15.6172 89.487 15.5391 89.6484 15.3828C89.8151 15.2214 89.9688 14.9688 90.1094 14.625C90.25 14.2812 90.3776 13.8281 90.4922 13.2656C90.6068 12.6979 90.7109 12.0104 90.8047 11.2031C90.8984 10.3906 90.9818 9.4401 91.0547 8.35156H96.8828V17ZM101.281 8.35156V12.7656C101.281 12.9062 101.276 13.0859 101.266 13.3047C101.26 13.5182 101.25 13.7422 101.234 13.9766C101.219 14.2057 101.203 14.4167 101.188 14.6094C101.172 14.8021 101.159 14.9453 101.148 15.0391L105.5 8.35156H107.734V17H105.977V12.6328C105.977 12.4036 105.982 12.138 105.992 11.8359C106.008 11.5339 106.023 11.2422 106.039 10.9609C106.06 10.6797 106.073 10.4661 106.078 10.3203L101.742 17H99.5156V8.35156H101.281ZM122.617 8.35156V15.5859H123.867V20.0391H122.141V17H110.375V8.35156H112.211V15.5547H115.57V8.35156H117.414V15.5547H120.781V8.35156H122.617ZM127.281 8.35156V11.8281H131.328V8.35156H133.172V17H131.328V13.2656H127.281V17H125.438V8.35156H127.281ZM143.453 12.6562C143.453 13.375 143.359 14.013 143.172 14.5703C142.984 15.1276 142.711 15.599 142.352 15.9844C141.992 16.3646 141.56 16.6562 141.055 16.8594C140.549 17.0573 139.979 17.1562 139.344 17.1562C138.75 17.1562 138.206 17.0573 137.711 16.8594C137.216 16.6562 136.786 16.3646 136.422 15.9844C136.062 15.599 135.784 15.1276 135.586 14.5703C135.388 14.013 135.289 13.375 135.289 12.6562C135.289 11.7031 135.453 10.8958 135.781 10.2344C136.115 9.56771 136.589 9.0599 137.203 8.71094C137.818 8.36198 138.549 8.1875 139.398 8.1875C140.195 8.1875 140.898 8.36198 141.508 8.71094C142.117 9.0599 142.594 9.56771 142.938 10.2344C143.281 10.901 143.453 11.7083 143.453 12.6562ZM137.18 12.6562C137.18 13.2865 137.255 13.8255 137.406 14.2734C137.562 14.7214 137.802 15.0651 138.125 15.3047C138.448 15.5391 138.865 15.6562 139.375 15.6562C139.885 15.6562 140.302 15.5391 140.625 15.3047C140.948 15.0651 141.185 14.7214 141.336 14.2734C141.487 13.8255 141.562 13.2865 141.562 12.6562C141.562 12.026 141.487 11.4922 141.336 11.0547C141.185 10.612 140.948 10.276 140.625 10.0469C140.302 9.8125 139.883 9.69531 139.367 9.69531C138.607 9.69531 138.052 9.95052 137.703 10.4609C137.354 10.9714 137.18 11.7031 137.18 12.6562ZM155.586 8.35156V17H153.883V12.0625C153.883 11.7396 153.891 11.4167 153.906 11.0938C153.922 10.7708 153.943 10.4635 153.969 10.1719H153.922L151.289 17H149.844L147.234 10.1641H147.18C147.206 10.4609 147.224 10.7682 147.234 11.0859C147.25 11.4036 147.258 11.7474 147.258 12.1172V17H145.555V8.35156H148.117L150.586 14.8125L153.094 8.35156H155.586ZM156.883 8.35156H158.883L160.656 13.2891C160.734 13.513 160.805 13.7344 160.867 13.9531C160.935 14.1667 160.992 14.3776 161.039 14.5859C161.091 14.7943 161.133 15.0026 161.164 15.2109H161.211C161.263 14.9401 161.336 14.638 161.43 14.3047C161.529 13.9661 161.638 13.6276 161.758 13.2891L163.461 8.35156H165.438L161.727 18.1875C161.513 18.75 161.25 19.2292 160.938 19.625C160.63 20.026 160.266 20.3281 159.844 20.5312C159.422 20.7396 158.94 20.8438 158.398 20.8438C158.138 20.8438 157.911 20.8281 157.719 20.7969C157.526 20.7708 157.362 20.7422 157.227 20.7109V19.2422C157.336 19.2682 157.474 19.2917 157.641 19.3125C157.807 19.3333 157.979 19.3438 158.156 19.3438C158.484 19.3438 158.768 19.2786 159.008 19.1484C159.247 19.0182 159.451 18.8333 159.617 18.5938C159.784 18.3594 159.922 18.0911 160.031 17.7891L160.336 16.9766L156.883 8.35156ZM178.461 8.35156V17H176.609V9.80469H172.75V17H170.906V8.35156H178.461ZM185.531 8.1875C186.557 8.1875 187.38 8.5625 188 9.3125C188.625 10.0625 188.938 11.1771 188.938 12.6562C188.938 13.6354 188.792 14.4609 188.5 15.1328C188.214 15.7995 187.81 16.3047 187.289 16.6484C186.773 16.987 186.172 17.1562 185.484 17.1562C185.047 17.1562 184.667 17.099 184.344 16.9844C184.021 16.8698 183.745 16.7214 183.516 16.5391C183.286 16.3516 183.094 16.1484 182.938 15.9297H182.828C182.854 16.138 182.878 16.3698 182.898 16.625C182.924 16.875 182.938 17.1042 182.938 17.3125V20.8359H181.094V8.35156H182.594L182.852 9.54688H182.938C183.099 9.30208 183.294 9.07552 183.523 8.86719C183.758 8.65885 184.039 8.49479 184.367 8.375C184.701 8.25 185.089 8.1875 185.531 8.1875ZM185.039 9.6875C184.534 9.6875 184.128 9.78906 183.82 9.99219C183.518 10.1901 183.297 10.4896 183.156 10.8906C183.021 11.2917 182.948 11.7943 182.938 12.3984V12.6562C182.938 13.2969 183.003 13.8411 183.133 14.2891C183.268 14.7318 183.49 15.0703 183.797 15.3047C184.109 15.5339 184.531 15.6484 185.062 15.6484C185.51 15.6484 185.88 15.526 186.172 15.2812C186.469 15.0365 186.69 14.6875 186.836 14.2344C186.982 13.7812 187.055 13.2474 187.055 12.6328C187.055 11.7005 186.888 10.9766 186.555 10.4609C186.227 9.94531 185.721 9.6875 185.039 9.6875ZM194.453 8.1875C195.547 8.1875 196.372 8.42969 196.93 8.91406C197.492 9.39844 197.773 10.1536 197.773 11.1797V17H196.469L196.117 15.7734H196.055C195.81 16.0859 195.557 16.3438 195.297 16.5469C195.036 16.75 194.734 16.901 194.391 17C194.052 17.1042 193.638 17.1562 193.148 17.1562C192.633 17.1562 192.172 17.0625 191.766 16.875C191.359 16.6823 191.039 16.3906 190.805 16C190.57 15.6094 190.453 15.1146 190.453 14.5156C190.453 13.625 190.784 12.9557 191.445 12.5078C192.112 12.0599 193.117 11.8125 194.461 11.7656L195.961 11.7109V11.2578C195.961 10.6589 195.82 10.2318 195.539 9.97656C195.263 9.72135 194.872 9.59375 194.367 9.59375C193.935 9.59375 193.516 9.65625 193.109 9.78125C192.703 9.90625 192.307 10.0599 191.922 10.2422L191.328 8.94531C191.75 8.72135 192.229 8.53906 192.766 8.39844C193.307 8.25781 193.87 8.1875 194.453 8.1875ZM195.953 12.8672L194.836 12.9062C193.919 12.9375 193.276 13.0938 192.906 13.375C192.536 13.6562 192.352 14.0417 192.352 14.5312C192.352 14.9583 192.479 15.2708 192.734 15.4688C192.99 15.6615 193.326 15.7578 193.742 15.7578C194.378 15.7578 194.904 15.5781 195.32 15.2188C195.742 14.8542 195.953 14.3203 195.953 13.6172V12.8672ZM207.617 10.5703C207.617 11.0703 207.464 11.4792 207.156 11.7969C206.854 12.1094 206.438 12.3151 205.906 12.4141V12.4766C206.474 12.5495 206.948 12.75 207.328 13.0781C207.708 13.4062 207.898 13.862 207.898 14.4453C207.898 14.9401 207.773 15.3802 207.523 15.7656C207.279 16.1458 206.888 16.4479 206.352 16.6719C205.82 16.8906 205.125 17 204.266 17H200.344V8.35156H204.25C204.896 8.35156 205.471 8.42188 205.977 8.5625C206.487 8.70312 206.888 8.9349 207.18 9.25781C207.471 9.58073 207.617 10.0182 207.617 10.5703ZM205.984 14.3828C205.984 13.9557 205.82 13.6484 205.492 13.4609C205.169 13.2734 204.695 13.1797 204.07 13.1797H202.188V15.6484H204.109C204.693 15.6484 205.151 15.5521 205.484 15.3594C205.818 15.1615 205.984 14.8359 205.984 14.3828ZM205.75 10.7344C205.75 10.3958 205.622 10.1458 205.367 9.98438C205.112 9.81771 204.711 9.73438 204.164 9.73438H202.188V11.8281H203.914C204.518 11.8281 204.974 11.7422 205.281 11.5703C205.594 11.3932 205.75 11.1146 205.75 10.7344ZM208.664 8.35156H210.664L212.438 13.2891C212.516 13.513 212.586 13.7344 212.648 13.9531C212.716 14.1667 212.773 14.3776 212.82 14.5859C212.872 14.7943 212.914 15.0026 212.945 15.2109H212.992C213.044 14.9401 213.117 14.638 213.211 14.3047C213.31 13.9661 213.419 13.6276 213.539 13.2891L215.242 8.35156H217.219L213.508 18.1875C213.294 18.75 213.031 19.2292 212.719 19.625C212.411 20.026 212.047 20.3281 211.625 20.5312C211.203 20.7396 210.721 20.8438 210.18 20.8438C209.919 20.8438 209.693 20.8281 209.5 20.7969C209.307 20.7708 209.143 20.7422 209.008 20.7109V19.2422C209.117 19.2682 209.255 19.2917 209.422 19.3125C209.589 19.3333 209.76 19.3438 209.938 19.3438C210.266 19.3438 210.549 19.2786 210.789 19.1484C211.029 19.0182 211.232 18.8333 211.398 18.5938C211.565 18.3594 211.703 18.0911 211.812 17.7891L212.117 16.9766L208.664 8.35156Z" fill="#140A32"/>
<line x1="39" y1="26.5" x2="218" y2="26.5" stroke="#33836E"/>
</svg>
