<svg width="183" height="27" viewBox="0 0 183 27" fill="none" xmlns="http://www.w3.org/2000/svg">
<path fill-rule="evenodd" clip-rule="evenodd" d="M12 13.9038C12.4142 13.9038 12.75 14.2396 12.75 14.6538V22.5C12.75 22.9142 12.4142 23.25 12 23.25C11.5858 23.25 11.25 22.9142 11.25 22.5V14.6538C11.25 14.2396 11.5858 13.9038 12 13.9038Z" fill="#33836E"/>
<path fill-rule="evenodd" clip-rule="evenodd" d="M9 8.63452C8.30964 8.63452 7.75 9.19417 7.75 9.88452V12.6538C7.75 13.3441 8.30964 13.9038 9 13.9038H15C15.6904 13.9038 16.25 13.3441 16.25 12.6538V9.88452C16.25 9.19417 15.6904 8.63452 15 8.63452H9ZM6.25 9.88452C6.25 8.36574 7.48122 7.13452 9 7.13452H15C16.5188 7.13452 17.75 8.36574 17.75 9.88452V12.6538C17.75 14.1725 16.5188 15.4038 15 15.4038H9C7.48122 15.4038 6.25 14.1725 6.25 12.6538V9.88452Z" fill="#33836E"/>
<path fill-rule="evenodd" clip-rule="evenodd" d="M15.3334 3.75C15.7476 3.75 16.0834 4.08579 16.0834 4.5V7.88462C16.0834 8.29883 15.7476 8.63462 15.3334 8.63462C14.9192 8.63462 14.5834 8.29883 14.5834 7.88462V4.5C14.5834 4.08579 14.9192 3.75 15.3334 3.75Z" fill="#33836E"/>
<path fill-rule="evenodd" clip-rule="evenodd" d="M8.66663 3.75C9.08084 3.75 9.41663 4.08579 9.41663 4.5V7.88462C9.41663 8.29883 9.08084 8.63462 8.66663 8.63462C8.25241 8.63462 7.91663 8.29883 7.91663 7.88462V4.5C7.91663 4.08579 8.25241 3.75 8.66663 3.75Z" fill="#33836E"/>
<path d="M40.5 17V5.57812H49.2734V17H47.4141V7.17188H42.375V17H40.5ZM59.7656 12.6562C59.7656 13.375 59.6719 14.013 59.4844 14.5703C59.2969 15.1276 59.0234 15.599 58.6641 15.9844C58.3047 16.3646 57.8724 16.6562 57.3672 16.8594C56.862 17.0573 56.2917 17.1562 55.6562 17.1562C55.0625 17.1562 54.5182 17.0573 54.0234 16.8594C53.5286 16.6562 53.099 16.3646 52.7344 15.9844C52.375 15.599 52.0964 15.1276 51.8984 14.5703C51.7005 14.013 51.6016 13.375 51.6016 12.6562C51.6016 11.7031 51.7656 10.8958 52.0938 10.2344C52.4271 9.56771 52.901 9.0599 53.5156 8.71094C54.1302 8.36198 54.862 8.1875 55.7109 8.1875C56.5078 8.1875 57.2109 8.36198 57.8203 8.71094C58.4297 9.0599 58.9062 9.56771 59.25 10.2344C59.5938 10.901 59.7656 11.7083 59.7656 12.6562ZM53.4922 12.6562C53.4922 13.2865 53.5677 13.8255 53.7188 14.2734C53.875 14.7214 54.1146 15.0651 54.4375 15.3047C54.7604 15.5391 55.1771 15.6562 55.6875 15.6562C56.1979 15.6562 56.6146 15.5391 56.9375 15.3047C57.2604 15.0651 57.4974 14.7214 57.6484 14.2734C57.7995 13.8255 57.875 13.2865 57.875 12.6562C57.875 12.026 57.7995 11.4922 57.6484 11.0547C57.4974 10.612 57.2604 10.276 56.9375 10.0469C56.6146 9.8125 56.1953 9.69531 55.6797 9.69531C54.9193 9.69531 54.3646 9.95052 54.0156 10.4609C53.6667 10.9714 53.4922 11.7031 53.4922 12.6562ZM73.3047 10.5703C73.3047 11.0703 73.151 11.4792 72.8438 11.7969C72.5417 12.1094 72.125 12.3151 71.5938 12.4141V12.4766C72.1615 12.5495 72.6354 12.75 73.0156 13.0781C73.3958 13.4062 73.5859 13.862 73.5859 14.4453C73.5859 14.9401 73.4609 15.3802 73.2109 15.7656C72.9661 16.1458 72.5755 16.4479 72.0391 16.6719C71.5078 16.8906 70.8125 17 69.9531 17H66.0312V8.35156H69.9375C70.5833 8.35156 71.1589 8.42188 71.6641 8.5625C72.1745 8.70312 72.5755 8.9349 72.8672 9.25781C73.1589 9.58073 73.3047 10.0182 73.3047 10.5703ZM71.6719 14.3828C71.6719 13.9557 71.5078 13.6484 71.1797 13.4609C70.8568 13.2734 70.3828 13.1797 69.7578 13.1797H67.875V15.6484H69.7969C70.3802 15.6484 70.8385 15.5521 71.1719 15.3594C71.5052 15.1615 71.6719 14.8359 71.6719 14.3828ZM71.4375 10.7344C71.4375 10.3958 71.3099 10.1458 71.0547 9.98438C70.7995 9.81771 70.3984 9.73438 69.8516 9.73438H67.875V11.8281H69.6016C70.2057 11.8281 70.6615 11.7422 70.9688 11.5703C71.2812 11.3932 71.4375 11.1146 71.4375 10.7344ZM83.3125 12.6562C83.3125 13.375 83.2188 14.013 83.0312 14.5703C82.8438 15.1276 82.5703 15.599 82.2109 15.9844C81.8516 16.3646 81.4193 16.6562 80.9141 16.8594C80.4089 17.0573 79.8385 17.1562 79.2031 17.1562C78.6094 17.1562 78.0651 17.0573 77.5703 16.8594C77.0755 16.6562 76.6458 16.3646 76.2812 15.9844C75.9219 15.599 75.6432 15.1276 75.4453 14.5703C75.2474 14.013 75.1484 13.375 75.1484 12.6562C75.1484 11.7031 75.3125 10.8958 75.6406 10.2344C75.974 9.56771 76.4479 9.0599 77.0625 8.71094C77.6771 8.36198 78.4089 8.1875 79.2578 8.1875C80.0547 8.1875 80.7578 8.36198 81.3672 8.71094C81.9766 9.0599 82.4531 9.56771 82.7969 10.2344C83.1406 10.901 83.3125 11.7083 83.3125 12.6562ZM77.0391 12.6562C77.0391 13.2865 77.1146 13.8255 77.2656 14.2734C77.4219 14.7214 77.6615 15.0651 77.9844 15.3047C78.3073 15.5391 78.724 15.6562 79.2344 15.6562C79.7448 15.6562 80.1615 15.5391 80.4844 15.3047C80.8073 15.0651 81.0443 14.7214 81.1953 14.2734C81.3464 13.8255 81.4219 13.2865 81.4219 12.6562C81.4219 12.026 81.3464 11.4922 81.1953 11.0547C81.0443 10.612 80.8073 10.276 80.4844 10.0469C80.1615 9.8125 79.7422 9.69531 79.2266 9.69531C78.4661 9.69531 77.9115 9.95052 77.5625 10.4609C77.2135 10.9714 77.0391 11.7031 77.0391 12.6562ZM92.9766 8.35156V17H91.125V9.80469H87.2656V17H85.4219V8.35156H92.9766ZM100.047 8.1875C101.073 8.1875 101.896 8.5625 102.516 9.3125C103.141 10.0625 103.453 11.1771 103.453 12.6562C103.453 13.6354 103.307 14.4609 103.016 15.1328C102.729 15.7995 102.326 16.3047 101.805 16.6484C101.289 16.987 100.688 17.1562 100 17.1562C99.5625 17.1562 99.1823 17.099 98.8594 16.9844C98.5365 16.8698 98.2604 16.7214 98.0312 16.5391C97.8021 16.3516 97.6094 16.1484 97.4531 15.9297H97.3438C97.3698 16.138 97.3932 16.3698 97.4141 16.625C97.4401 16.875 97.4531 17.1042 97.4531 17.3125V20.8359H95.6094V8.35156H97.1094L97.3672 9.54688H97.4531C97.6146 9.30208 97.8099 9.07552 98.0391 8.86719C98.2734 8.65885 98.5547 8.49479 98.8828 8.375C99.2161 8.25 99.6042 8.1875 100.047 8.1875ZM99.5547 9.6875C99.0495 9.6875 98.6432 9.78906 98.3359 9.99219C98.0339 10.1901 97.8125 10.4896 97.6719 10.8906C97.5365 11.2917 97.4635 11.7943 97.4531 12.3984V12.6562C97.4531 13.2969 97.5182 13.8411 97.6484 14.2891C97.7839 14.7318 98.0052 15.0703 98.3125 15.3047C98.625 15.5339 99.0469 15.6484 99.5781 15.6484C100.026 15.6484 100.396 15.526 100.688 15.2812C100.984 15.0365 101.206 14.6875 101.352 14.2344C101.497 13.7812 101.57 13.2474 101.57 12.6328C101.57 11.7005 101.404 10.9766 101.07 10.4609C100.742 9.94531 100.237 9.6875 99.5547 9.6875ZM113.234 12.6562C113.234 13.375 113.141 14.013 112.953 14.5703C112.766 15.1276 112.492 15.599 112.133 15.9844C111.773 16.3646 111.341 16.6562 110.836 16.8594C110.331 17.0573 109.76 17.1562 109.125 17.1562C108.531 17.1562 107.987 17.0573 107.492 16.8594C106.997 16.6562 106.568 16.3646 106.203 15.9844C105.844 15.599 105.565 15.1276 105.367 14.5703C105.169 14.013 105.07 13.375 105.07 12.6562C105.07 11.7031 105.234 10.8958 105.562 10.2344C105.896 9.56771 106.37 9.0599 106.984 8.71094C107.599 8.36198 108.331 8.1875 109.18 8.1875C109.977 8.1875 110.68 8.36198 111.289 8.71094C111.898 9.0599 112.375 9.56771 112.719 10.2344C113.062 10.901 113.234 11.7083 113.234 12.6562ZM106.961 12.6562C106.961 13.2865 107.036 13.8255 107.188 14.2734C107.344 14.7214 107.583 15.0651 107.906 15.3047C108.229 15.5391 108.646 15.6562 109.156 15.6562C109.667 15.6562 110.083 15.5391 110.406 15.3047C110.729 15.0651 110.966 14.7214 111.117 14.2734C111.268 13.8255 111.344 13.2865 111.344 12.6562C111.344 12.026 111.268 11.4922 111.117 11.0547C110.966 10.612 110.729 10.276 110.406 10.0469C110.083 9.8125 109.664 9.69531 109.148 9.69531C108.388 9.69531 107.833 9.95052 107.484 10.4609C107.135 10.9714 106.961 11.7031 106.961 12.6562ZM118.828 17.1562C118.01 17.1562 117.302 16.9974 116.703 16.6797C116.104 16.362 115.643 15.875 115.32 15.2188C114.997 14.5625 114.836 13.7292 114.836 12.7188C114.836 11.6667 115.013 10.8073 115.367 10.1406C115.721 9.47396 116.211 8.98177 116.836 8.66406C117.466 8.34635 118.188 8.1875 119 8.1875C119.516 8.1875 119.982 8.23958 120.398 8.34375C120.82 8.44271 121.177 8.5651 121.469 8.71094L120.922 10.1797C120.604 10.0495 120.279 9.9401 119.945 9.85156C119.612 9.76302 119.292 9.71875 118.984 9.71875C118.479 9.71875 118.057 9.83073 117.719 10.0547C117.385 10.2786 117.135 10.612 116.969 11.0547C116.807 11.4974 116.727 12.0469 116.727 12.7031C116.727 13.3385 116.81 13.875 116.977 14.3125C117.143 14.7448 117.391 15.0729 117.719 15.2969C118.047 15.5156 118.451 15.625 118.93 15.625C119.404 15.625 119.828 15.5677 120.203 15.4531C120.578 15.3385 120.932 15.1901 121.266 15.0078V16.6016C120.938 16.7891 120.586 16.9271 120.211 17.0156C119.836 17.1094 119.375 17.1562 118.828 17.1562ZM126.688 8.1875C127.781 8.1875 128.607 8.42969 129.164 8.91406C129.727 9.39844 130.008 10.1536 130.008 11.1797V17H128.703L128.352 15.7734H128.289C128.044 16.0859 127.792 16.3438 127.531 16.5469C127.271 16.75 126.969 16.901 126.625 17C126.286 17.1042 125.872 17.1562 125.383 17.1562C124.867 17.1562 124.406 17.0625 124 16.875C123.594 16.6823 123.273 16.3906 123.039 16C122.805 15.6094 122.688 15.1146 122.688 14.5156C122.688 13.625 123.018 12.9557 123.68 12.5078C124.346 12.0599 125.352 11.8125 126.695 11.7656L128.195 11.7109V11.2578C128.195 10.6589 128.055 10.2318 127.773 9.97656C127.497 9.72135 127.107 9.59375 126.602 9.59375C126.169 9.59375 125.75 9.65625 125.344 9.78125C124.938 9.90625 124.542 10.0599 124.156 10.2422L123.562 8.94531C123.984 8.72135 124.464 8.53906 125 8.39844C125.542 8.25781 126.104 8.1875 126.688 8.1875ZM128.188 12.8672L127.07 12.9062C126.154 12.9375 125.51 13.0938 125.141 13.375C124.771 13.6562 124.586 14.0417 124.586 14.5312C124.586 14.9583 124.714 15.2708 124.969 15.4688C125.224 15.6615 125.56 15.7578 125.977 15.7578C126.612 15.7578 127.138 15.5781 127.555 15.2188C127.977 14.8542 128.188 14.3203 128.188 13.6172V12.8672ZM142.602 8.35156V17H140.898V12.0625C140.898 11.7396 140.906 11.4167 140.922 11.0938C140.938 10.7708 140.958 10.4635 140.984 10.1719H140.938L138.305 17H136.859L134.25 10.1641H134.195C134.221 10.4609 134.24 10.7682 134.25 11.0859C134.266 11.4036 134.273 11.7474 134.273 12.1172V17H132.57V8.35156H135.133L137.602 14.8125L140.109 8.35156H142.602ZM152.414 11.0938L148.266 5.57812H150.25L154.297 11.1094V5.57812H156.07V11.1094L160.117 5.57812H162.109L157.953 11.0859L162.297 17H160.234L156.07 11.2109V17H154.297V11.2109L150.125 17H148.062L152.414 11.0938ZM172.578 17H170.398L165.703 11.2031V17H163.828V5.57812H165.703V11.1094L170.312 5.57812H172.359L167.75 11.0938L172.578 17ZM182.523 17H180.391L177.516 12.3203L174.625 17H172.617L176.414 11.0781L172.875 5.57812H174.945L177.602 9.90625L180.242 5.57812H182.25L178.695 11.1328L182.523 17Z" fill="#140A32"/>
<line x1="39" y1="26.5" x2="183" y2="26.5" stroke="#33836E"/>
</svg>
