<svg width="230" height="27" viewBox="0 0 230 27" fill="none" xmlns="http://www.w3.org/2000/svg">
<path fill-rule="evenodd" clip-rule="evenodd" d="M8 14.25C4.54822 14.25 1.75 17.0482 1.75 20.5V21.5C1.75 21.9142 1.41421 22.25 1 22.25C0.585786 22.25 0.25 21.9142 0.25 21.5V20.5C0.25 16.2198 3.71979 12.75 8 12.75C12.2802 12.75 15.75 16.2198 15.75 20.5V21.5C15.75 21.9142 15.4142 22.25 15 22.25C14.5858 22.25 14.25 21.9142 14.25 21.5V20.5C14.25 17.0482 11.4518 14.25 8 14.25Z" fill="#33836E"/>
<path fill-rule="evenodd" clip-rule="evenodd" d="M18 11.25C15.6528 11.25 13.75 13.1528 13.75 15.5H12.25C12.25 12.3244 14.8244 9.75 18 9.75C21.1756 9.75 23.75 12.3244 23.75 15.5V16C23.75 16.4142 23.4142 16.75 23 16.75C22.5858 16.75 22.25 16.4142 22.25 16V15.5C22.25 13.1528 20.3472 11.25 18 11.25Z" fill="#33836E"/>
<path fill-rule="evenodd" clip-rule="evenodd" d="M8 6.25C6.20507 6.25 4.75 7.70507 4.75 9.5C4.75 11.2949 6.20507 12.75 8 12.75C9.79493 12.75 11.25 11.2949 11.25 9.5C11.25 7.70507 9.79493 6.25 8 6.25ZM3.25 9.5C3.25 6.87665 5.37665 4.75 8 4.75C10.6234 4.75 12.75 6.87665 12.75 9.5C12.75 12.1234 10.6234 14.25 8 14.25C5.37665 14.25 3.25 12.1234 3.25 9.5Z" fill="#33836E"/>
<path fill-rule="evenodd" clip-rule="evenodd" d="M18 5.25C16.7574 5.25 15.75 6.25736 15.75 7.5C15.75 8.74264 16.7574 9.75 18 9.75C19.2426 9.75 20.25 8.74264 20.25 7.5C20.25 6.25736 19.2426 5.25 18 5.25ZM14.25 7.5C14.25 5.42893 15.9289 3.75 18 3.75C20.0711 3.75 21.75 5.42893 21.75 7.5C21.75 9.57107 20.0711 11.25 18 11.25C15.9289 11.25 14.25 9.57107 14.25 7.5Z" fill="#33836E"/>
<path d="M40.5 17V5.57812H49.2734V17H47.4141V7.17188H42.375V17H40.5ZM59.7656 12.6562C59.7656 13.375 59.6719 14.013 59.4844 14.5703C59.2969 15.1276 59.0234 15.599 58.6641 15.9844C58.3047 16.3646 57.8724 16.6562 57.3672 16.8594C56.862 17.0573 56.2917 17.1562 55.6562 17.1562C55.0625 17.1562 54.5182 17.0573 54.0234 16.8594C53.5286 16.6562 53.099 16.3646 52.7344 15.9844C52.375 15.599 52.0964 15.1276 51.8984 14.5703C51.7005 14.013 51.6016 13.375 51.6016 12.6562C51.6016 11.7031 51.7656 10.8958 52.0938 10.2344C52.4271 9.56771 52.901 9.0599 53.5156 8.71094C54.1302 8.36198 54.862 8.1875 55.7109 8.1875C56.5078 8.1875 57.2109 8.36198 57.8203 8.71094C58.4297 9.0599 58.9062 9.56771 59.25 10.2344C59.5938 10.901 59.7656 11.7083 59.7656 12.6562ZM53.4922 12.6562C53.4922 13.2865 53.5677 13.8255 53.7188 14.2734C53.875 14.7214 54.1146 15.0651 54.4375 15.3047C54.7604 15.5391 55.1771 15.6562 55.6875 15.6562C56.1979 15.6562 56.6146 15.5391 56.9375 15.3047C57.2604 15.0651 57.4974 14.7214 57.6484 14.2734C57.7995 13.8255 57.875 13.2865 57.875 12.6562C57.875 12.026 57.7995 11.4922 57.6484 11.0547C57.4974 10.612 57.2604 10.276 56.9375 10.0469C56.6146 9.8125 56.1953 9.69531 55.6797 9.69531C54.9193 9.69531 54.3646 9.95052 54.0156 10.4609C53.6667 10.9714 53.4922 11.7031 53.4922 12.6562ZM71.6406 8.35156V9.79688H67.875V17H66.0312V8.35156H71.6406ZM77.75 8.1875C78.776 8.1875 79.599 8.5625 80.2188 9.3125C80.8438 10.0625 81.1562 11.1771 81.1562 12.6562C81.1562 13.6354 81.0104 14.4609 80.7188 15.1328C80.4323 15.7995 80.0286 16.3047 79.5078 16.6484C78.9922 16.987 78.3906 17.1562 77.7031 17.1562C77.2656 17.1562 76.8854 17.099 76.5625 16.9844C76.2396 16.8698 75.9635 16.7214 75.7344 16.5391C75.5052 16.3516 75.3125 16.1484 75.1562 15.9297H75.0469C75.0729 16.138 75.0964 16.3698 75.1172 16.625C75.1432 16.875 75.1562 17.1042 75.1562 17.3125V20.8359H73.3125V8.35156H74.8125L75.0703 9.54688H75.1562C75.3177 9.30208 75.513 9.07552 75.7422 8.86719C75.9766 8.65885 76.2578 8.49479 76.5859 8.375C76.9193 8.25 77.3073 8.1875 77.75 8.1875ZM77.2578 9.6875C76.7526 9.6875 76.3464 9.78906 76.0391 9.99219C75.737 10.1901 75.5156 10.4896 75.375 10.8906C75.2396 11.2917 75.1667 11.7943 75.1562 12.3984V12.6562C75.1562 13.2969 75.2214 13.8411 75.3516 14.2891C75.487 14.7318 75.7083 15.0703 76.0156 15.3047C76.3281 15.5339 76.75 15.6484 77.2812 15.6484C77.7292 15.6484 78.099 15.526 78.3906 15.2812C78.6875 15.0365 78.9089 14.6875 79.0547 14.2344C79.2005 13.7812 79.2734 13.2474 79.2734 12.6328C79.2734 11.7005 79.1068 10.9766 78.7734 10.4609C78.4453 9.94531 77.9401 9.6875 77.2578 9.6875ZM86.6719 8.1875C87.7656 8.1875 88.5911 8.42969 89.1484 8.91406C89.7109 9.39844 89.9922 10.1536 89.9922 11.1797V17H88.6875L88.3359 15.7734H88.2734C88.0286 16.0859 87.776 16.3438 87.5156 16.5469C87.2552 16.75 86.9531 16.901 86.6094 17C86.2708 17.1042 85.8568 17.1562 85.3672 17.1562C84.8516 17.1562 84.3906 17.0625 83.9844 16.875C83.5781 16.6823 83.2578 16.3906 83.0234 16C82.7891 15.6094 82.6719 15.1146 82.6719 14.5156C82.6719 13.625 83.0026 12.9557 83.6641 12.5078C84.3307 12.0599 85.3359 11.8125 86.6797 11.7656L88.1797 11.7109V11.2578C88.1797 10.6589 88.0391 10.2318 87.7578 9.97656C87.4818 9.72135 87.0911 9.59375 86.5859 9.59375C86.1536 9.59375 85.7344 9.65625 85.3281 9.78125C84.9219 9.90625 84.526 10.0599 84.1406 10.2422L83.5469 8.94531C83.9688 8.72135 84.4479 8.53906 84.9844 8.39844C85.526 8.25781 86.0885 8.1875 86.6719 8.1875ZM88.1719 12.8672L87.0547 12.9062C86.138 12.9375 85.4948 13.0938 85.125 13.375C84.7552 13.6562 84.5703 14.0417 84.5703 14.5312C84.5703 14.9583 84.6979 15.2708 84.9531 15.4688C85.2083 15.6615 85.5443 15.7578 85.9609 15.7578C86.5964 15.7578 87.1224 15.5781 87.5391 15.2188C87.9609 14.8542 88.1719 14.3203 88.1719 13.6172V12.8672ZM103.781 8.35156L100.391 12.5234L104.086 17H102.07L98.5312 12.6094V17H96.8203V12.6094L93.2812 17H91.2656L94.9609 12.5234L91.5703 8.35156H93.5156L96.8203 12.5469V8.35156H98.5312V12.5469L101.844 8.35156H103.781ZM112.5 8.35156V15.5781H113.75V20.0469H112.055V17H106.086V20.0469H104.391V15.5781H105.094C105.531 14.9427 105.896 14.2344 106.188 13.4531C106.484 12.6719 106.714 11.849 106.875 10.9844C107.042 10.1146 107.146 9.23698 107.188 8.35156H112.5ZM110.68 9.75781H108.766C108.703 10.4609 108.596 11.1615 108.445 11.8594C108.294 12.5521 108.099 13.2161 107.859 13.8516C107.625 14.4818 107.344 15.0573 107.016 15.5781H110.68V9.75781ZM118.75 8.1875C119.844 8.1875 120.669 8.42969 121.227 8.91406C121.789 9.39844 122.07 10.1536 122.07 11.1797V17H120.766L120.414 15.7734H120.352C120.107 16.0859 119.854 16.3438 119.594 16.5469C119.333 16.75 119.031 16.901 118.688 17C118.349 17.1042 117.935 17.1562 117.445 17.1562C116.93 17.1562 116.469 17.0625 116.062 16.875C115.656 16.6823 115.336 16.3906 115.102 16C114.867 15.6094 114.75 15.1146 114.75 14.5156C114.75 13.625 115.081 12.9557 115.742 12.5078C116.409 12.0599 117.414 11.8125 118.758 11.7656L120.258 11.7109V11.2578C120.258 10.6589 120.117 10.2318 119.836 9.97656C119.56 9.72135 119.169 9.59375 118.664 9.59375C118.232 9.59375 117.812 9.65625 117.406 9.78125C117 9.90625 116.604 10.0599 116.219 10.2422L115.625 8.94531C116.047 8.72135 116.526 8.53906 117.062 8.39844C117.604 8.25781 118.167 8.1875 118.75 8.1875ZM120.25 12.8672L119.133 12.9062C118.216 12.9375 117.573 13.0938 117.203 13.375C116.833 13.6562 116.648 14.0417 116.648 14.5312C116.648 14.9583 116.776 15.2708 117.031 15.4688C117.286 15.6615 117.622 15.7578 118.039 15.7578C118.674 15.7578 119.201 15.5781 119.617 15.2188C120.039 14.8542 120.25 14.3203 120.25 13.6172V12.8672ZM126.484 8.35156V11.8281H130.531V8.35156H132.375V17H130.531V13.2656H126.484V17H124.641V8.35156H126.484ZM138.484 17.1562C137.667 17.1562 136.958 16.9974 136.359 16.6797C135.76 16.362 135.299 15.875 134.977 15.2188C134.654 14.5625 134.492 13.7292 134.492 12.7188C134.492 11.6667 134.669 10.8073 135.023 10.1406C135.378 9.47396 135.867 8.98177 136.492 8.66406C137.122 8.34635 137.844 8.1875 138.656 8.1875C139.172 8.1875 139.638 8.23958 140.055 8.34375C140.477 8.44271 140.833 8.5651 141.125 8.71094L140.578 10.1797C140.26 10.0495 139.935 9.9401 139.602 9.85156C139.268 9.76302 138.948 9.71875 138.641 9.71875C138.135 9.71875 137.714 9.83073 137.375 10.0547C137.042 10.2786 136.792 10.612 136.625 11.0547C136.464 11.4974 136.383 12.0469 136.383 12.7031C136.383 13.3385 136.466 13.875 136.633 14.3125C136.799 14.7448 137.047 15.0729 137.375 15.2969C137.703 15.5156 138.107 15.625 138.586 15.625C139.06 15.625 139.484 15.5677 139.859 15.4531C140.234 15.3385 140.589 15.1901 140.922 15.0078V16.6016C140.594 16.7891 140.242 16.9271 139.867 17.0156C139.492 17.1094 139.031 17.1562 138.484 17.1562ZM148.312 8.35156H150.336L146.758 12.5078L150.641 17H148.523L144.797 12.6094V17H142.953V8.35156H144.797V12.5469L148.312 8.35156ZM153.812 8.35156V12.7656C153.812 12.9062 153.807 13.0859 153.797 13.3047C153.792 13.5182 153.781 13.7422 153.766 13.9766C153.75 14.2057 153.734 14.4167 153.719 14.6094C153.703 14.8021 153.69 14.9453 153.68 15.0391L158.031 8.35156H160.266V17H158.508V12.6328C158.508 12.4036 158.513 12.138 158.523 11.8359C158.539 11.5339 158.555 11.2422 158.57 10.9609C158.591 10.6797 158.604 10.4661 158.609 10.3203L154.273 17H152.047V8.35156H153.812ZM172.93 8.35156V17H171.227V12.0625C171.227 11.7396 171.234 11.4167 171.25 11.0938C171.266 10.7708 171.286 10.4635 171.312 10.1719H171.266L168.633 17H167.188L164.578 10.1641H164.523C164.549 10.4609 164.568 10.7682 164.578 11.0859C164.594 11.4036 164.602 11.7474 164.602 12.1172V17H162.898V8.35156H165.461L167.93 14.8125L170.438 8.35156H172.93ZM186.75 8.35156V15.5781H188V20.0469H186.305V17H180.336V20.0469H178.641V15.5781H179.344C179.781 14.9427 180.146 14.2344 180.438 13.4531C180.734 12.6719 180.964 11.849 181.125 10.9844C181.292 10.1146 181.396 9.23698 181.438 8.35156H186.75ZM184.93 9.75781H183.016C182.953 10.4609 182.846 11.1615 182.695 11.8594C182.544 12.5521 182.349 13.2161 182.109 13.8516C181.875 14.4818 181.594 15.0573 181.266 15.5781H184.93V9.75781ZM193.055 8.1875C193.826 8.1875 194.487 8.34635 195.039 8.66406C195.591 8.98177 196.016 9.43229 196.312 10.0156C196.609 10.599 196.758 11.2969 196.758 12.1094V13.0938H190.984C191.005 13.9323 191.229 14.5781 191.656 15.0312C192.089 15.4844 192.693 15.7109 193.469 15.7109C194.021 15.7109 194.516 15.6589 194.953 15.5547C195.396 15.4453 195.852 15.2865 196.32 15.0781V16.5703C195.888 16.7734 195.448 16.9219 195 17.0156C194.552 17.1094 194.016 17.1562 193.391 17.1562C192.542 17.1562 191.794 16.9922 191.148 16.6641C190.508 16.3307 190.005 15.8359 189.641 15.1797C189.281 14.5234 189.102 13.7083 189.102 12.7344C189.102 11.7656 189.266 10.9427 189.594 10.2656C189.922 9.58854 190.383 9.07292 190.977 8.71875C191.57 8.36458 192.263 8.1875 193.055 8.1875ZM193.055 9.57031C192.477 9.57031 192.008 9.75781 191.648 10.1328C191.294 10.5078 191.086 11.0573 191.023 11.7812H194.961C194.956 11.349 194.883 10.9661 194.742 10.6328C194.607 10.2995 194.398 10.0391 194.117 9.85156C193.841 9.66406 193.487 9.57031 193.055 9.57031ZM205.945 17H204.094V9.78906H201.695C201.591 11.1016 201.461 12.224 201.305 13.1562C201.148 14.0885 200.953 14.849 200.719 15.4375C200.484 16.0208 200.195 16.4479 199.852 16.7188C199.508 16.9896 199.094 17.125 198.609 17.125C198.396 17.125 198.203 17.1094 198.031 17.0781C197.859 17.0521 197.706 17.0104 197.57 16.9531V15.5078C197.659 15.5391 197.755 15.5651 197.859 15.5859C197.964 15.6068 198.07 15.6172 198.18 15.6172C198.372 15.6172 198.549 15.5391 198.711 15.3828C198.878 15.2214 199.031 14.9688 199.172 14.625C199.312 14.2812 199.44 13.8281 199.555 13.2656C199.669 12.6979 199.773 12.0104 199.867 11.2031C199.961 10.3906 200.044 9.4401 200.117 8.35156H205.945V17ZM211.969 8.1875C213.062 8.1875 213.888 8.42969 214.445 8.91406C215.008 9.39844 215.289 10.1536 215.289 11.1797V17H213.984L213.633 15.7734H213.57C213.326 16.0859 213.073 16.3438 212.812 16.5469C212.552 16.75 212.25 16.901 211.906 17C211.568 17.1042 211.154 17.1562 210.664 17.1562C210.148 17.1562 209.688 17.0625 209.281 16.875C208.875 16.6823 208.555 16.3906 208.32 16C208.086 15.6094 207.969 15.1146 207.969 14.5156C207.969 13.625 208.299 12.9557 208.961 12.5078C209.628 12.0599 210.633 11.8125 211.977 11.7656L213.477 11.7109V11.2578C213.477 10.6589 213.336 10.2318 213.055 9.97656C212.779 9.72135 212.388 9.59375 211.883 9.59375C211.451 9.59375 211.031 9.65625 210.625 9.78125C210.219 9.90625 209.823 10.0599 209.438 10.2422L208.844 8.94531C209.266 8.72135 209.745 8.53906 210.281 8.39844C210.823 8.25781 211.385 8.1875 211.969 8.1875ZM213.469 12.8672L212.352 12.9062C211.435 12.9375 210.792 13.0938 210.422 13.375C210.052 13.6562 209.867 14.0417 209.867 14.5312C209.867 14.9583 209.995 15.2708 210.25 15.4688C210.505 15.6615 210.841 15.7578 211.258 15.7578C211.893 15.7578 212.419 15.5781 212.836 15.2188C213.258 14.8542 213.469 14.3203 213.469 13.6172V12.8672ZM227.883 8.35156V17H226.18V12.0625C226.18 11.7396 226.188 11.4167 226.203 11.0938C226.219 10.7708 226.24 10.4635 226.266 10.1719H226.219L223.586 17H222.141L219.531 10.1641H219.477C219.503 10.4609 219.521 10.7682 219.531 11.0859C219.547 11.4036 219.555 11.7474 219.555 12.1172V17H217.852V8.35156H220.414L222.883 14.8125L225.391 8.35156H227.883Z" fill="#140A32"/>
<line x1="39" y1="26.5" x2="230" y2="26.5" stroke="#33836E"/>
</svg>
