<svg width="215" height="27" viewBox="0 0 215 27" fill="none" xmlns="http://www.w3.org/2000/svg">
<path fill-rule="evenodd" clip-rule="evenodd" d="M12 4.25C7.99594 4.25 4.75 7.49594 4.75 11.5C4.75 12.4073 5.17155 13.5709 5.90354 14.871C6.6242 16.151 7.59493 17.4758 8.58078 18.6823C9.56431 19.886 10.5499 20.9563 11.2906 21.7264C11.5656 22.0124 11.8063 22.2564 12 22.4499C12.1937 22.2564 12.4344 22.0124 12.7094 21.7264C13.4501 20.9563 14.4357 19.886 15.4192 18.6823C16.4051 17.4758 17.3758 16.151 18.0965 14.871C18.8284 13.5709 19.25 12.4073 19.25 11.5C19.25 7.49594 16.0041 4.25 12 4.25ZM12 23.5C11.4841 24.0444 11.484 24.0443 11.4838 24.0441L11.477 24.0377L11.4586 24.0201L11.389 23.9532C11.3286 23.8948 11.2408 23.8093 11.1294 23.6993C10.9066 23.4794 10.5895 23.1614 10.2094 22.7662C9.45014 21.9767 8.43569 20.8754 7.41922 19.6314C6.40507 18.3902 5.3758 16.9911 4.59646 15.6069C3.82845 14.2428 3.25 12.8018 3.25 11.5C3.25 6.66751 7.16751 2.75 12 2.75C16.8325 2.75 20.75 6.66751 20.75 11.5C20.75 12.8018 20.1716 14.2428 19.4035 15.6069C18.6242 16.9911 17.5949 18.3902 16.5808 19.6314C15.5643 20.8754 14.5499 21.9767 13.7906 22.7662C13.4105 23.1614 13.0934 23.4794 12.8706 23.6993C12.7592 23.8093 12.6714 23.8948 12.611 23.9532L12.5414 24.0201L12.523 24.0377L12.518 24.0424L12.5166 24.0437C12.5164 24.0439 12.5159 24.0444 12 23.5ZM12 23.5L12.5166 24.0437L12 24.5333L11.4838 24.0441L12 23.5Z" fill="#33836E"/>
<path d="M12 12.5C12.5523 12.5 13 12.0523 13 11.5C13 10.9477 12.5523 10.5 12 10.5C11.4477 10.5 11 10.9477 11 11.5C11 12.0523 11.4477 12.5 12 12.5Z" fill="#33836E"/>
<path fill-rule="evenodd" clip-rule="evenodd" d="M12 11.25C11.8619 11.25 11.75 11.3619 11.75 11.5C11.75 11.6381 11.8619 11.75 12 11.75C12.1381 11.75 12.25 11.6381 12.25 11.5C12.25 11.3619 12.1381 11.25 12 11.25ZM10.25 11.5C10.25 10.5335 11.0335 9.75 12 9.75C12.9665 9.75 13.75 10.5335 13.75 11.5C13.75 12.4665 12.9665 13.25 12 13.25C11.0335 13.25 10.25 12.4665 10.25 11.5Z" fill="#33836E"/>
<path d="M40.5 17V5.57812H49.2734V17H47.4141V7.17188H42.375V17H40.5ZM59.7656 12.6562C59.7656 13.375 59.6719 14.013 59.4844 14.5703C59.2969 15.1276 59.0234 15.599 58.6641 15.9844C58.3047 16.3646 57.8724 16.6562 57.3672 16.8594C56.862 17.0573 56.2917 17.1562 55.6562 17.1562C55.0625 17.1562 54.5182 17.0573 54.0234 16.8594C53.5286 16.6562 53.099 16.3646 52.7344 15.9844C52.375 15.599 52.0964 15.1276 51.8984 14.5703C51.7005 14.013 51.6016 13.375 51.6016 12.6562C51.6016 11.7031 51.7656 10.8958 52.0938 10.2344C52.4271 9.56771 52.901 9.0599 53.5156 8.71094C54.1302 8.36198 54.862 8.1875 55.7109 8.1875C56.5078 8.1875 57.2109 8.36198 57.8203 8.71094C58.4297 9.0599 58.9062 9.56771 59.25 10.2344C59.5938 10.901 59.7656 11.7083 59.7656 12.6562ZM53.4922 12.6562C53.4922 13.2865 53.5677 13.8255 53.7188 14.2734C53.875 14.7214 54.1146 15.0651 54.4375 15.3047C54.7604 15.5391 55.1771 15.6562 55.6875 15.6562C56.1979 15.6562 56.6146 15.5391 56.9375 15.3047C57.2604 15.0651 57.4974 14.7214 57.6484 14.2734C57.7995 13.8255 57.875 13.2865 57.875 12.6562C57.875 12.026 57.7995 11.4922 57.6484 11.0547C57.4974 10.612 57.2604 10.276 56.9375 10.0469C56.6146 9.8125 56.1953 9.69531 55.6797 9.69531C54.9193 9.69531 54.3646 9.95052 54.0156 10.4609C53.6667 10.9714 53.4922 11.7031 53.4922 12.6562ZM68.7188 8.1875C69.3542 8.1875 69.9245 8.27344 70.4297 8.44531C70.9401 8.61198 71.3438 8.86458 71.6406 9.20312C71.9375 9.54167 72.0859 9.96354 72.0859 10.4688C72.0859 10.9896 71.9349 11.4062 71.6328 11.7188C71.3359 12.026 70.9323 12.2474 70.4219 12.3828V12.4531C70.7812 12.5417 71.1068 12.6693 71.3984 12.8359C71.6901 12.9974 71.9219 13.2161 72.0938 13.4922C72.2708 13.763 72.3594 14.112 72.3594 14.5391C72.3594 15.0234 72.2161 15.4635 71.9297 15.8594C71.6484 16.2552 71.2161 16.5703 70.6328 16.8047C70.0495 17.0391 69.3073 17.1562 68.4062 17.1562C67.974 17.1562 67.5625 17.1328 67.1719 17.0859C66.7865 17.0443 66.4349 16.9844 66.1172 16.9062C65.7995 16.8229 65.5234 16.724 65.2891 16.6094V15.0312C65.6484 15.2031 66.0833 15.3594 66.5938 15.5C67.1042 15.6354 67.651 15.7031 68.2344 15.7031C68.6667 15.7031 69.0573 15.6641 69.4062 15.5859C69.7604 15.5026 70.0391 15.3672 70.2422 15.1797C70.4505 14.9922 70.5547 14.7422 70.5547 14.4297C70.5547 14.1432 70.4635 13.9062 70.2812 13.7188C70.099 13.5312 69.8255 13.3932 69.4609 13.3047C69.0964 13.2109 68.6354 13.1641 68.0781 13.1641H67.0469V11.8125H67.9531C68.7188 11.8125 69.3177 11.7292 69.75 11.5625C70.1875 11.3906 70.4062 11.0938 70.4062 10.6719C70.4062 10.3177 70.2526 10.0521 69.9453 9.875C69.638 9.69792 69.1667 9.60938 68.5312 9.60938C68.0938 9.60938 67.6615 9.65885 67.2344 9.75781C66.8073 9.85156 66.3802 9.98698 65.9531 10.1641L65.375 8.8125C65.849 8.61979 66.3568 8.46875 66.8984 8.35938C67.4401 8.24479 68.0469 8.1875 68.7188 8.1875ZM77.7891 8.1875C78.5599 8.1875 79.2214 8.34635 79.7734 8.66406C80.3255 8.98177 80.75 9.43229 81.0469 10.0156C81.3438 10.599 81.4922 11.2969 81.4922 12.1094V13.0938H75.7188C75.7396 13.9323 75.9635 14.5781 76.3906 15.0312C76.8229 15.4844 77.4271 15.7109 78.2031 15.7109C78.7552 15.7109 79.25 15.6589 79.6875 15.5547C80.1302 15.4453 80.5859 15.2865 81.0547 15.0781V16.5703C80.6224 16.7734 80.1823 16.9219 79.7344 17.0156C79.2865 17.1094 78.75 17.1562 78.125 17.1562C77.276 17.1562 76.5286 16.9922 75.8828 16.6641C75.2422 16.3307 74.7396 15.8359 74.375 15.1797C74.0156 14.5234 73.8359 13.7083 73.8359 12.7344C73.8359 11.7656 74 10.9427 74.3281 10.2656C74.6562 9.58854 75.1172 9.07292 75.7109 8.71875C76.3047 8.36458 76.9974 8.1875 77.7891 8.1875ZM77.7891 9.57031C77.2109 9.57031 76.7422 9.75781 76.3828 10.1328C76.0286 10.5078 75.8203 11.0573 75.7578 11.7812H79.6953C79.6901 11.349 79.6172 10.9661 79.4766 10.6328C79.3411 10.2995 79.1328 10.0391 78.8516 9.85156C78.5755 9.66406 78.2214 9.57031 77.7891 9.57031ZM93.5859 8.35156V17H91.8828V12.0625C91.8828 11.7396 91.8906 11.4167 91.9062 11.0938C91.9219 10.7708 91.9427 10.4635 91.9688 10.1719H91.9219L89.2891 17H87.8438L85.2344 10.1641H85.1797C85.2057 10.4609 85.224 10.7682 85.2344 11.0859C85.25 11.4036 85.2578 11.7474 85.2578 12.1172V17H83.5547V8.35156H86.1172L88.5859 14.8125L91.0938 8.35156H93.5859ZM99.6328 8.1875C100.404 8.1875 101.065 8.34635 101.617 8.66406C102.169 8.98177 102.594 9.43229 102.891 10.0156C103.188 10.599 103.336 11.2969 103.336 12.1094V13.0938H97.5625C97.5833 13.9323 97.8073 14.5781 98.2344 15.0312C98.6667 15.4844 99.2708 15.7109 100.047 15.7109C100.599 15.7109 101.094 15.6589 101.531 15.5547C101.974 15.4453 102.43 15.2865 102.898 15.0781V16.5703C102.466 16.7734 102.026 16.9219 101.578 17.0156C101.13 17.1094 100.594 17.1562 99.9688 17.1562C99.1198 17.1562 98.3724 16.9922 97.7266 16.6641C97.0859 16.3307 96.5833 15.8359 96.2188 15.1797C95.8594 14.5234 95.6797 13.7083 95.6797 12.7344C95.6797 11.7656 95.8438 10.9427 96.1719 10.2656C96.5 9.58854 96.9609 9.07292 97.5547 8.71875C98.1484 8.36458 98.8411 8.1875 99.6328 8.1875ZM99.6328 9.57031C99.0547 9.57031 98.5859 9.75781 98.2266 10.1328C97.8724 10.5078 97.6641 11.0573 97.6016 11.7812H101.539C101.534 11.349 101.461 10.9661 101.32 10.6328C101.185 10.2995 100.977 10.0391 100.695 9.85156C100.419 9.66406 100.065 9.57031 99.6328 9.57031ZM112.523 17H110.672V9.78906H108.273C108.169 11.1016 108.039 12.224 107.883 13.1562C107.727 14.0885 107.531 14.849 107.297 15.4375C107.062 16.0208 106.773 16.4479 106.43 16.7188C106.086 16.9896 105.672 17.125 105.188 17.125C104.974 17.125 104.781 17.1094 104.609 17.0781C104.438 17.0521 104.284 17.0104 104.148 16.9531V15.5078C104.237 15.5391 104.333 15.5651 104.438 15.5859C104.542 15.6068 104.648 15.6172 104.758 15.6172C104.951 15.6172 105.128 15.5391 105.289 15.3828C105.456 15.2214 105.609 14.9688 105.75 14.625C105.891 14.2812 106.018 13.8281 106.133 13.2656C106.247 12.6979 106.352 12.0104 106.445 11.2031C106.539 10.3906 106.622 9.4401 106.695 8.35156H112.523V17ZM117 11.8047H119.148C119.961 11.8047 120.633 11.8984 121.164 12.0859C121.701 12.2682 122.102 12.5443 122.367 12.9141C122.633 13.2839 122.766 13.7474 122.766 14.3047C122.766 14.8516 122.641 15.3281 122.391 15.7344C122.141 16.1354 121.75 16.4479 121.219 16.6719C120.693 16.8906 120.005 17 119.156 17H115.156V8.35156H117V11.8047ZM120.922 14.3516C120.922 13.9193 120.76 13.6146 120.438 13.4375C120.115 13.2552 119.654 13.1641 119.055 13.1641H117V15.6484H119.07C119.617 15.6484 120.062 15.5495 120.406 15.3516C120.75 15.1484 120.922 14.8151 120.922 14.3516ZM126.641 8.35156V11.8281H130.688V8.35156H132.531V17H130.688V13.2656H126.641V17H124.797V8.35156H126.641ZM135.156 17V8.35156H137V11.8047H138.742C139.555 11.8047 140.224 11.8984 140.75 12.0859C141.276 12.2682 141.667 12.5443 141.922 12.9141C142.177 13.2839 142.305 13.7474 142.305 14.3047C142.305 14.8516 142.182 15.3281 141.938 15.7344C141.693 16.1354 141.31 16.4479 140.789 16.6719C140.268 16.8906 139.586 17 138.742 17H135.156ZM137 15.6484H138.617C139.169 15.6484 139.615 15.5495 139.953 15.3516C140.297 15.1484 140.469 14.8151 140.469 14.3516C140.469 13.9193 140.31 13.6146 139.992 13.4375C139.68 13.2552 139.221 13.1641 138.617 13.1641H137V15.6484ZM143.641 17V8.35156H145.484V17H143.641ZM158.133 8.35156V17H156.43V12.0625C156.43 11.7396 156.438 11.4167 156.453 11.0938C156.469 10.7708 156.49 10.4635 156.516 10.1719H156.469L153.836 17H152.391L149.781 10.1641H149.727C149.753 10.4609 149.771 10.7682 149.781 11.0859C149.797 11.4036 149.805 11.7474 149.805 12.1172V17H148.102V8.35156H150.664L153.133 14.8125L155.641 8.35156H158.133ZM171.953 8.35156V15.5781H173.203V20.0469H171.508V17H165.539V20.0469H163.844V15.5781H164.547C164.984 14.9427 165.349 14.2344 165.641 13.4531C165.938 12.6719 166.167 11.849 166.328 10.9844C166.495 10.1146 166.599 9.23698 166.641 8.35156H171.953ZM170.133 9.75781H168.219C168.156 10.4609 168.049 11.1615 167.898 11.8594C167.747 12.5521 167.552 13.2161 167.312 13.8516C167.078 14.4818 166.797 15.0573 166.469 15.5781H170.133V9.75781ZM178.258 8.1875C179.029 8.1875 179.69 8.34635 180.242 8.66406C180.794 8.98177 181.219 9.43229 181.516 10.0156C181.812 10.599 181.961 11.2969 181.961 12.1094V13.0938H176.188C176.208 13.9323 176.432 14.5781 176.859 15.0312C177.292 15.4844 177.896 15.7109 178.672 15.7109C179.224 15.7109 179.719 15.6589 180.156 15.5547C180.599 15.4453 181.055 15.2865 181.523 15.0781V16.5703C181.091 16.7734 180.651 16.9219 180.203 17.0156C179.755 17.1094 179.219 17.1562 178.594 17.1562C177.745 17.1562 176.997 16.9922 176.352 16.6641C175.711 16.3307 175.208 15.8359 174.844 15.1797C174.484 14.5234 174.305 13.7083 174.305 12.7344C174.305 11.7656 174.469 10.9427 174.797 10.2656C175.125 9.58854 175.586 9.07292 176.18 8.71875C176.773 8.36458 177.466 8.1875 178.258 8.1875ZM178.258 9.57031C177.68 9.57031 177.211 9.75781 176.852 10.1328C176.497 10.5078 176.289 11.0573 176.227 11.7812H180.164C180.159 11.349 180.086 10.9661 179.945 10.6328C179.81 10.2995 179.602 10.0391 179.32 9.85156C179.044 9.66406 178.69 9.57031 178.258 9.57031ZM191.148 17H189.297V9.78906H186.898C186.794 11.1016 186.664 12.224 186.508 13.1562C186.352 14.0885 186.156 14.849 185.922 15.4375C185.688 16.0208 185.398 16.4479 185.055 16.7188C184.711 16.9896 184.297 17.125 183.812 17.125C183.599 17.125 183.406 17.1094 183.234 17.0781C183.062 17.0521 182.909 17.0104 182.773 16.9531V15.5078C182.862 15.5391 182.958 15.5651 183.062 15.5859C183.167 15.6068 183.273 15.6172 183.383 15.6172C183.576 15.6172 183.753 15.5391 183.914 15.3828C184.081 15.2214 184.234 14.9688 184.375 14.625C184.516 14.2812 184.643 13.8281 184.758 13.2656C184.872 12.6979 184.977 12.0104 185.07 11.2031C185.164 10.3906 185.247 9.4401 185.32 8.35156H191.148V17ZM197.172 8.1875C198.266 8.1875 199.091 8.42969 199.648 8.91406C200.211 9.39844 200.492 10.1536 200.492 11.1797V17H199.188L198.836 15.7734H198.773C198.529 16.0859 198.276 16.3438 198.016 16.5469C197.755 16.75 197.453 16.901 197.109 17C196.771 17.1042 196.357 17.1562 195.867 17.1562C195.352 17.1562 194.891 17.0625 194.484 16.875C194.078 16.6823 193.758 16.3906 193.523 16C193.289 15.6094 193.172 15.1146 193.172 14.5156C193.172 13.625 193.503 12.9557 194.164 12.5078C194.831 12.0599 195.836 11.8125 197.18 11.7656L198.68 11.7109V11.2578C198.68 10.6589 198.539 10.2318 198.258 9.97656C197.982 9.72135 197.591 9.59375 197.086 9.59375C196.654 9.59375 196.234 9.65625 195.828 9.78125C195.422 9.90625 195.026 10.0599 194.641 10.2422L194.047 8.94531C194.469 8.72135 194.948 8.53906 195.484 8.39844C196.026 8.25781 196.589 8.1875 197.172 8.1875ZM198.672 12.8672L197.555 12.9062C196.638 12.9375 195.995 13.0938 195.625 13.375C195.255 13.6562 195.07 14.0417 195.07 14.5312C195.07 14.9583 195.198 15.2708 195.453 15.4688C195.708 15.6615 196.044 15.7578 196.461 15.7578C197.096 15.7578 197.622 15.5781 198.039 15.2188C198.461 14.8542 198.672 14.3203 198.672 13.6172V12.8672ZM213.086 8.35156V17H211.383V12.0625C211.383 11.7396 211.391 11.4167 211.406 11.0938C211.422 10.7708 211.443 10.4635 211.469 10.1719H211.422L208.789 17H207.344L204.734 10.1641H204.68C204.706 10.4609 204.724 10.7682 204.734 11.0859C204.75 11.4036 204.758 11.7474 204.758 12.1172V17H203.055V8.35156H205.617L208.086 14.8125L210.594 8.35156H213.086Z" fill="#140A32"/>
<line x1="39" y1="26.5" x2="215" y2="26.5" stroke="#33836E"/>
</svg>
