<svg width="144" height="27" viewBox="0 0 144 27" fill="none" xmlns="http://www.w3.org/2000/svg">
<path fill-rule="evenodd" clip-rule="evenodd" d="M0.25 5.5C0.25 5.08579 0.585786 4.75 1 4.75H19C19.4142 4.75 19.75 5.08579 19.75 5.5C19.75 5.91421 19.4142 6.25 19 6.25H1.75V17.5C1.75 17.9142 1.41421 18.25 1 18.25C0.585786 18.25 0.25 17.9142 0.25 17.5V5.5Z" fill="#33836E"/>
<path fill-rule="evenodd" clip-rule="evenodd" d="M5.75 10.25V20.75H11.25V10.25H5.75ZM12.75 10.25V20.75H15.25V10.25H12.75ZM16.75 10.25V20.75H22.25V10.25H16.75ZM4.25 10.1C4.25 9.35442 4.85442 8.75 5.6 8.75H22.4C23.1456 8.75 23.75 9.35442 23.75 10.1V20.9C23.75 21.6456 23.1456 22.25 22.4 22.25H5.6C4.85442 22.25 4.25 21.6456 4.25 20.9V10.1Z" fill="#33836E"/>
<path d="M40.5 17V5.57812H49.2734V17H47.4141V7.17188H42.375V17H40.5ZM59.7656 12.6562C59.7656 13.375 59.6719 14.013 59.4844 14.5703C59.2969 15.1276 59.0234 15.599 58.6641 15.9844C58.3047 16.3646 57.8724 16.6562 57.3672 16.8594C56.862 17.0573 56.2917 17.1562 55.6562 17.1562C55.0625 17.1562 54.5182 17.0573 54.0234 16.8594C53.5286 16.6562 53.099 16.3646 52.7344 15.9844C52.375 15.599 52.0964 15.1276 51.8984 14.5703C51.7005 14.013 51.6016 13.375 51.6016 12.6562C51.6016 11.7031 51.7656 10.8958 52.0938 10.2344C52.4271 9.56771 52.901 9.0599 53.5156 8.71094C54.1302 8.36198 54.862 8.1875 55.7109 8.1875C56.5078 8.1875 57.2109 8.36198 57.8203 8.71094C58.4297 9.0599 58.9062 9.56771 59.25 10.2344C59.5938 10.901 59.7656 11.7083 59.7656 12.6562ZM53.4922 12.6562C53.4922 13.2865 53.5677 13.8255 53.7188 14.2734C53.875 14.7214 54.1146 15.0651 54.4375 15.3047C54.7604 15.5391 55.1771 15.6562 55.6875 15.6562C56.1979 15.6562 56.6146 15.5391 56.9375 15.3047C57.2604 15.0651 57.4974 14.7214 57.6484 14.2734C57.7995 13.8255 57.875 13.2865 57.875 12.6562C57.875 12.026 57.7995 11.4922 57.6484 11.0547C57.4974 10.612 57.2604 10.276 56.9375 10.0469C56.6146 9.8125 56.1953 9.69531 55.6797 9.69531C54.9193 9.69531 54.3646 9.95052 54.0156 10.4609C53.6667 10.9714 53.4922 11.7031 53.4922 12.6562ZM71.3906 8.35156H73.4141L69.8359 12.5078L73.7188 17H71.6016L67.875 12.6094V17H66.0312V8.35156H67.875V12.5469L71.3906 8.35156ZM79.5625 8.1875C80.5885 8.1875 81.4115 8.5625 82.0312 9.3125C82.6562 10.0625 82.9688 11.1771 82.9688 12.6562C82.9688 13.6354 82.8229 14.4609 82.5312 15.1328C82.2448 15.7995 81.8411 16.3047 81.3203 16.6484C80.8047 16.987 80.2031 17.1562 79.5156 17.1562C79.0781 17.1562 78.6979 17.099 78.375 16.9844C78.0521 16.8698 77.776 16.7214 77.5469 16.5391C77.3177 16.3516 77.125 16.1484 76.9688 15.9297H76.8594C76.8854 16.138 76.9089 16.3698 76.9297 16.625C76.9557 16.875 76.9688 17.1042 76.9688 17.3125V20.8359H75.125V8.35156H76.625L76.8828 9.54688H76.9688C77.1302 9.30208 77.3255 9.07552 77.5547 8.86719C77.7891 8.65885 78.0703 8.49479 78.3984 8.375C78.7318 8.25 79.1198 8.1875 79.5625 8.1875ZM79.0703 9.6875C78.5651 9.6875 78.1589 9.78906 77.8516 9.99219C77.5495 10.1901 77.3281 10.4896 77.1875 10.8906C77.0521 11.2917 76.9792 11.7943 76.9688 12.3984V12.6562C76.9688 13.2969 77.0339 13.8411 77.1641 14.2891C77.2995 14.7318 77.5208 15.0703 77.8281 15.3047C78.1406 15.5339 78.5625 15.6484 79.0938 15.6484C79.5417 15.6484 79.9115 15.526 80.2031 15.2812C80.5 15.0365 80.7214 14.6875 80.8672 14.2344C81.013 13.7812 81.0859 13.2474 81.0859 12.6328C81.0859 11.7005 80.9193 10.9766 80.5859 10.4609C80.2578 9.94531 79.7526 9.6875 79.0703 9.6875ZM88.5391 8.1875C89.3099 8.1875 89.9714 8.34635 90.5234 8.66406C91.0755 8.98177 91.5 9.43229 91.7969 10.0156C92.0938 10.599 92.2422 11.2969 92.2422 12.1094V13.0938H86.4688C86.4896 13.9323 86.7135 14.5781 87.1406 15.0312C87.5729 15.4844 88.1771 15.7109 88.9531 15.7109C89.5052 15.7109 90 15.6589 90.4375 15.5547C90.8802 15.4453 91.3359 15.2865 91.8047 15.0781V16.5703C91.3724 16.7734 90.9323 16.9219 90.4844 17.0156C90.0365 17.1094 89.5 17.1562 88.875 17.1562C88.026 17.1562 87.2786 16.9922 86.6328 16.6641C85.9922 16.3307 85.4896 15.8359 85.125 15.1797C84.7656 14.5234 84.5859 13.7083 84.5859 12.7344C84.5859 11.7656 84.75 10.9427 85.0781 10.2656C85.4062 9.58854 85.8672 9.07292 86.4609 8.71875C87.0547 8.36458 87.7474 8.1875 88.5391 8.1875ZM88.5391 9.57031C87.9609 9.57031 87.4922 9.75781 87.1328 10.1328C86.7786 10.5078 86.5703 11.0573 86.5078 11.7812H90.4453C90.4401 11.349 90.3672 10.9661 90.2266 10.6328C90.0911 10.2995 89.8828 10.0391 89.6016 9.85156C89.3255 9.66406 88.9714 9.57031 88.5391 9.57031ZM101.375 8.35156V15.5781H102.625V20.0469H100.93V17H94.9609V20.0469H93.2656V15.5781H93.9688C94.4062 14.9427 94.7708 14.2344 95.0625 13.4531C95.3594 12.6719 95.5885 11.849 95.75 10.9844C95.9167 10.1146 96.0208 9.23698 96.0625 8.35156H101.375ZM99.5547 9.75781H97.6406C97.5781 10.4609 97.4714 11.1615 97.3203 11.8594C97.1693 12.5521 96.974 13.2161 96.7344 13.8516C96.5 14.4818 96.2188 15.0573 95.8906 15.5781H99.5547V9.75781ZM106 8.35156V12.7656C106 12.9062 105.995 13.0859 105.984 13.3047C105.979 13.5182 105.969 13.7422 105.953 13.9766C105.938 14.2057 105.922 14.4167 105.906 14.6094C105.891 14.8021 105.878 14.9453 105.867 15.0391L110.219 8.35156H112.453V17H110.695V12.6328C110.695 12.4036 110.701 12.138 110.711 11.8359C110.727 11.5339 110.742 11.2422 110.758 10.9609C110.779 10.6797 110.792 10.4661 110.797 10.3203L106.461 17H104.234V8.35156H106ZM121.625 9.79688H118.781V17H116.953V9.79688H114.125V8.35156H121.625V9.79688ZM126.688 8.1875C127.781 8.1875 128.607 8.42969 129.164 8.91406C129.727 9.39844 130.008 10.1536 130.008 11.1797V17H128.703L128.352 15.7734H128.289C128.044 16.0859 127.792 16.3438 127.531 16.5469C127.271 16.75 126.969 16.901 126.625 17C126.286 17.1042 125.872 17.1562 125.383 17.1562C124.867 17.1562 124.406 17.0625 124 16.875C123.594 16.6823 123.273 16.3906 123.039 16C122.805 15.6094 122.688 15.1146 122.688 14.5156C122.688 13.625 123.018 12.9557 123.68 12.5078C124.346 12.0599 125.352 11.8125 126.695 11.7656L128.195 11.7109V11.2578C128.195 10.6589 128.055 10.2318 127.773 9.97656C127.497 9.72135 127.107 9.59375 126.602 9.59375C126.169 9.59375 125.75 9.65625 125.344 9.78125C124.938 9.90625 124.542 10.0599 124.156 10.2422L123.562 8.94531C123.984 8.72135 124.464 8.53906 125 8.39844C125.542 8.25781 126.104 8.1875 126.688 8.1875ZM128.188 12.8672L127.07 12.9062C126.154 12.9375 125.51 13.0938 125.141 13.375C124.771 13.6562 124.586 14.0417 124.586 14.5312C124.586 14.9583 124.714 15.2708 124.969 15.4688C125.224 15.6615 125.56 15.7578 125.977 15.7578C126.612 15.7578 127.138 15.5781 127.555 15.2188C127.977 14.8542 128.188 14.3203 128.188 13.6172V12.8672ZM142.602 8.35156V17H140.898V12.0625C140.898 11.7396 140.906 11.4167 140.922 11.0938C140.938 10.7708 140.958 10.4635 140.984 10.1719H140.938L138.305 17H136.859L134.25 10.1641H134.195C134.221 10.4609 134.24 10.7682 134.25 11.0859C134.266 11.4036 134.273 11.7474 134.273 12.1172V17H132.57V8.35156H135.133L137.602 14.8125L140.109 8.35156H142.602Z" fill="#140A32"/>
<line x1="39" y1="26.5" x2="144" y2="26.5" stroke="#33836E"/>
</svg>
