<svg width="206" height="27" viewBox="0 0 206 27" fill="none" xmlns="http://www.w3.org/2000/svg">
<path fill-rule="evenodd" clip-rule="evenodd" d="M11.5 5.25C7.21979 5.25 3.75 8.71979 3.75 13C3.75 14.5079 4.1799 15.9131 4.92348 17.1024C5.14308 17.4536 5.03638 17.9163 4.68516 18.1359C4.33395 18.3555 3.87122 18.2488 3.65162 17.8976C2.7633 16.4768 2.25 14.7972 2.25 13C2.25 7.89137 6.39137 3.75 11.5 3.75C11.9142 3.75 12.25 4.08579 12.25 4.5C12.25 4.91421 11.9142 5.25 11.5 5.25Z" fill="#33836E"/>
<path fill-rule="evenodd" clip-rule="evenodd" d="M19.25 11C19.25 10.5858 19.5858 10.25 20 10.25H22.5C22.9142 10.25 23.25 10.5858 23.25 11C23.25 11.4142 22.9142 11.75 22.5 11.75H20.75V13C20.75 14.7972 20.2367 16.4768 19.3484 17.8976C19.1288 18.2488 18.6661 18.3555 18.3148 18.1359C17.9636 17.9163 17.8569 17.4536 18.0765 17.1024C18.8201 15.9131 19.25 14.5079 19.25 13V11Z" fill="#33836E"/>
<path fill-rule="evenodd" clip-rule="evenodd" d="M8 19.25C8.69036 19.25 9.25 19.8096 9.25 20.5C9.25 21.1904 8.69036 21.75 8 21.75C7.30964 21.75 6.75 21.1904 6.75 20.5C6.75 19.8096 7.30964 19.25 8 19.25ZM10.75 20.5C10.75 18.9812 9.51878 17.75 8 17.75C6.48122 17.75 5.25 18.9812 5.25 20.5C5.25 22.0188 6.48122 23.25 8 23.25C9.51878 23.25 10.75 22.0188 10.75 20.5Z" fill="#33836E"/>
<path fill-rule="evenodd" clip-rule="evenodd" d="M15 19.25C15.6904 19.25 16.25 19.8096 16.25 20.5C16.25 21.1904 15.6904 21.75 15 21.75C14.3096 21.75 13.75 21.1904 13.75 20.5C13.75 19.8096 14.3096 19.25 15 19.25ZM17.75 20.5C17.75 18.9812 16.5188 17.75 15 17.75C13.4812 17.75 12.25 18.9812 12.25 20.5C12.25 22.0188 13.4812 23.25 15 23.25C16.5188 23.25 17.75 22.0188 17.75 20.5Z" fill="#33836E"/>
<path fill-rule="evenodd" clip-rule="evenodd" d="M11.5 3.75C11.9142 3.75 12.25 4.08579 12.25 4.5V13.5C12.25 13.9142 11.9142 14.25 11.5 14.25C11.0858 14.25 10.75 13.9142 10.75 13.5V4.5C10.75 4.08579 11.0858 3.75 11.5 3.75Z" fill="#33836E"/>
<path fill-rule="evenodd" clip-rule="evenodd" d="M2.75 13.5C2.75 13.0858 3.08579 12.75 3.5 12.75H19.5C19.9142 12.75 20.25 13.0858 20.25 13.5C20.25 13.9142 19.9142 14.25 19.5 14.25H3.5C3.08579 14.25 2.75 13.9142 2.75 13.5Z" fill="#33836E"/>
<path d="M40.5 17V5.57812H49.2734V17H47.4141V7.17188H42.375V17H40.5ZM59.7656 12.6562C59.7656 13.375 59.6719 14.013 59.4844 14.5703C59.2969 15.1276 59.0234 15.599 58.6641 15.9844C58.3047 16.3646 57.8724 16.6562 57.3672 16.8594C56.862 17.0573 56.2917 17.1562 55.6562 17.1562C55.0625 17.1562 54.5182 17.0573 54.0234 16.8594C53.5286 16.6562 53.099 16.3646 52.7344 15.9844C52.375 15.599 52.0964 15.1276 51.8984 14.5703C51.7005 14.013 51.6016 13.375 51.6016 12.6562C51.6016 11.7031 51.7656 10.8958 52.0938 10.2344C52.4271 9.56771 52.901 9.0599 53.5156 8.71094C54.1302 8.36198 54.862 8.1875 55.7109 8.1875C56.5078 8.1875 57.2109 8.36198 57.8203 8.71094C58.4297 9.0599 58.9062 9.56771 59.25 10.2344C59.5938 10.901 59.7656 11.7083 59.7656 12.6562ZM53.4922 12.6562C53.4922 13.2865 53.5677 13.8255 53.7188 14.2734C53.875 14.7214 54.1146 15.0651 54.4375 15.3047C54.7604 15.5391 55.1771 15.6562 55.6875 15.6562C56.1979 15.6562 56.6146 15.5391 56.9375 15.3047C57.2604 15.0651 57.4974 14.7214 57.6484 14.2734C57.7995 13.8255 57.875 13.2865 57.875 12.6562C57.875 12.026 57.7995 11.4922 57.6484 11.0547C57.4974 10.612 57.2604 10.276 56.9375 10.0469C56.6146 9.8125 56.1953 9.69531 55.6797 9.69531C54.9193 9.69531 54.3646 9.95052 54.0156 10.4609C53.6667 10.9714 53.4922 11.7031 53.4922 12.6562ZM69.5156 17.1562C68.6979 17.1562 67.9896 16.9974 67.3906 16.6797C66.7917 16.362 66.3307 15.875 66.0078 15.2188C65.6849 14.5625 65.5234 13.7292 65.5234 12.7188C65.5234 11.6667 65.7005 10.8073 66.0547 10.1406C66.4089 9.47396 66.8984 8.98177 67.5234 8.66406C68.1536 8.34635 68.875 8.1875 69.6875 8.1875C70.2031 8.1875 70.6693 8.23958 71.0859 8.34375C71.5078 8.44271 71.8646 8.5651 72.1562 8.71094L71.6094 10.1797C71.2917 10.0495 70.9661 9.9401 70.6328 9.85156C70.2995 9.76302 69.9792 9.71875 69.6719 9.71875C69.1667 9.71875 68.7448 9.83073 68.4062 10.0547C68.0729 10.2786 67.8229 10.612 67.6562 11.0547C67.4948 11.4974 67.4141 12.0469 67.4141 12.7031C67.4141 13.3385 67.4974 13.875 67.6641 14.3125C67.8307 14.7448 68.0781 15.0729 68.4062 15.2969C68.7344 15.5156 69.138 15.625 69.6172 15.625C70.0911 15.625 70.5156 15.5677 70.8906 15.4531C71.2656 15.3385 71.6198 15.1901 71.9531 15.0078V16.6016C71.625 16.7891 71.2734 16.9271 70.8984 17.0156C70.5234 17.1094 70.0625 17.1562 69.5156 17.1562ZM77.4297 8.1875C78.2005 8.1875 78.862 8.34635 79.4141 8.66406C79.9661 8.98177 80.3906 9.43229 80.6875 10.0156C80.9844 10.599 81.1328 11.2969 81.1328 12.1094V13.0938H75.3594C75.3802 13.9323 75.6042 14.5781 76.0312 15.0312C76.4635 15.4844 77.0677 15.7109 77.8438 15.7109C78.3958 15.7109 78.8906 15.6589 79.3281 15.5547C79.7708 15.4453 80.2266 15.2865 80.6953 15.0781V16.5703C80.263 16.7734 79.8229 16.9219 79.375 17.0156C78.9271 17.1094 78.3906 17.1562 77.7656 17.1562C76.9167 17.1562 76.1693 16.9922 75.5234 16.6641C74.8828 16.3307 74.3802 15.8359 74.0156 15.1797C73.6562 14.5234 73.4766 13.7083 73.4766 12.7344C73.4766 11.7656 73.6406 10.9427 73.9688 10.2656C74.2969 9.58854 74.7578 9.07292 75.3516 8.71875C75.9453 8.36458 76.638 8.1875 77.4297 8.1875ZM77.4297 9.57031C76.8516 9.57031 76.3828 9.75781 76.0234 10.1328C75.6693 10.5078 75.4609 11.0573 75.3984 11.7812H79.3359C79.3307 11.349 79.2578 10.9661 79.1172 10.6328C78.9818 10.2995 78.7734 10.0391 78.4922 9.85156C78.2161 9.66406 77.862 9.57031 77.4297 9.57031ZM93.2266 8.35156V17H91.5234V12.0625C91.5234 11.7396 91.5312 11.4167 91.5469 11.0938C91.5625 10.7708 91.5833 10.4635 91.6094 10.1719H91.5625L88.9297 17H87.4844L84.875 10.1641H84.8203C84.8464 10.4609 84.8646 10.7682 84.875 11.0859C84.8906 11.4036 84.8984 11.7474 84.8984 12.1172V17H83.1953V8.35156H85.7578L88.2266 14.8125L90.7344 8.35156H93.2266ZM99.2734 8.1875C100.044 8.1875 100.706 8.34635 101.258 8.66406C101.81 8.98177 102.234 9.43229 102.531 10.0156C102.828 10.599 102.977 11.2969 102.977 12.1094V13.0938H97.2031C97.224 13.9323 97.4479 14.5781 97.875 15.0312C98.3073 15.4844 98.9115 15.7109 99.6875 15.7109C100.24 15.7109 100.734 15.6589 101.172 15.5547C101.615 15.4453 102.07 15.2865 102.539 15.0781V16.5703C102.107 16.7734 101.667 16.9219 101.219 17.0156C100.771 17.1094 100.234 17.1562 99.6094 17.1562C98.7604 17.1562 98.013 16.9922 97.3672 16.6641C96.7266 16.3307 96.224 15.8359 95.8594 15.1797C95.5 14.5234 95.3203 13.7083 95.3203 12.7344C95.3203 11.7656 95.4844 10.9427 95.8125 10.2656C96.1406 9.58854 96.6016 9.07292 97.1953 8.71875C97.7891 8.36458 98.4818 8.1875 99.2734 8.1875ZM99.2734 9.57031C98.6953 9.57031 98.2266 9.75781 97.8672 10.1328C97.513 10.5078 97.3047 11.0573 97.2422 11.7812H101.18C101.174 11.349 101.102 10.9661 100.961 10.6328C100.826 10.2995 100.617 10.0391 100.336 9.85156C100.06 9.66406 99.7057 9.57031 99.2734 9.57031ZM106.812 8.35156V12.7656C106.812 12.9062 106.807 13.0859 106.797 13.3047C106.792 13.5182 106.781 13.7422 106.766 13.9766C106.75 14.2057 106.734 14.4167 106.719 14.6094C106.703 14.8021 106.69 14.9453 106.68 15.0391L111.031 8.35156H113.266V17H111.508V12.6328C111.508 12.4036 111.513 12.138 111.523 11.8359C111.539 11.5339 111.555 11.2422 111.57 10.9609C111.591 10.6797 111.604 10.4661 111.609 10.3203L107.273 17H105.047V8.35156H106.812ZM112.617 4.71094C112.565 5.2474 112.419 5.71094 112.18 6.10156C111.945 6.48698 111.589 6.78385 111.109 6.99219C110.63 7.20052 110 7.30469 109.219 7.30469C108.411 7.30469 107.773 7.20573 107.305 7.00781C106.836 6.80469 106.497 6.51042 106.289 6.125C106.081 5.73438 105.956 5.26302 105.914 4.71094H107.586C107.638 5.28906 107.789 5.67969 108.039 5.88281C108.289 6.08073 108.693 6.17969 109.25 6.17969C109.729 6.17969 110.112 6.07292 110.398 5.85938C110.69 5.64583 110.865 5.26302 110.922 4.71094H112.617ZM117.75 8.35156V11.8281H121.797V8.35156H123.641V17H121.797V13.2656H117.75V17H115.906V8.35156H117.75ZM126.266 17V8.35156H128.109V11.8047H129.852C130.664 11.8047 131.333 11.8984 131.859 12.0859C132.385 12.2682 132.776 12.5443 133.031 12.9141C133.286 13.2839 133.414 13.7474 133.414 14.3047C133.414 14.8516 133.292 15.3281 133.047 15.7344C132.802 16.1354 132.419 16.4479 131.898 16.6719C131.378 16.8906 130.695 17 129.852 17H126.266ZM128.109 15.6484H129.727C130.279 15.6484 130.724 15.5495 131.062 15.3516C131.406 15.1484 131.578 14.8151 131.578 14.3516C131.578 13.9193 131.419 13.6146 131.102 13.4375C130.789 13.2552 130.331 13.1641 129.727 13.1641H128.109V15.6484ZM134.75 17V8.35156H136.594V17H134.75ZM149.242 8.35156V17H147.539V12.0625C147.539 11.7396 147.547 11.4167 147.562 11.0938C147.578 10.7708 147.599 10.4635 147.625 10.1719H147.578L144.945 17H143.5L140.891 10.1641H140.836C140.862 10.4609 140.88 10.7682 140.891 11.0859C140.906 11.4036 140.914 11.7474 140.914 12.1172V17H139.211V8.35156H141.773L144.242 14.8125L146.75 8.35156H149.242ZM163.062 8.35156V15.5781H164.312V20.0469H162.617V17H156.648V20.0469H154.953V15.5781H155.656C156.094 14.9427 156.458 14.2344 156.75 13.4531C157.047 12.6719 157.276 11.849 157.438 10.9844C157.604 10.1146 157.708 9.23698 157.75 8.35156H163.062ZM161.242 9.75781H159.328C159.266 10.4609 159.159 11.1615 159.008 11.8594C158.857 12.5521 158.661 13.2161 158.422 13.8516C158.188 14.4818 157.906 15.0573 157.578 15.5781H161.242V9.75781ZM169.367 8.1875C170.138 8.1875 170.799 8.34635 171.352 8.66406C171.904 8.98177 172.328 9.43229 172.625 10.0156C172.922 10.599 173.07 11.2969 173.07 12.1094V13.0938H167.297C167.318 13.9323 167.542 14.5781 167.969 15.0312C168.401 15.4844 169.005 15.7109 169.781 15.7109C170.333 15.7109 170.828 15.6589 171.266 15.5547C171.708 15.4453 172.164 15.2865 172.633 15.0781V16.5703C172.201 16.7734 171.76 16.9219 171.312 17.0156C170.865 17.1094 170.328 17.1562 169.703 17.1562C168.854 17.1562 168.107 16.9922 167.461 16.6641C166.82 16.3307 166.318 15.8359 165.953 15.1797C165.594 14.5234 165.414 13.7083 165.414 12.7344C165.414 11.7656 165.578 10.9427 165.906 10.2656C166.234 9.58854 166.695 9.07292 167.289 8.71875C167.883 8.36458 168.576 8.1875 169.367 8.1875ZM169.367 9.57031C168.789 9.57031 168.32 9.75781 167.961 10.1328C167.607 10.5078 167.398 11.0573 167.336 11.7812H171.273C171.268 11.349 171.195 10.9661 171.055 10.6328C170.919 10.2995 170.711 10.0391 170.43 9.85156C170.154 9.66406 169.799 9.57031 169.367 9.57031ZM182.258 17H180.406V9.78906H178.008C177.904 11.1016 177.773 12.224 177.617 13.1562C177.461 14.0885 177.266 14.849 177.031 15.4375C176.797 16.0208 176.508 16.4479 176.164 16.7188C175.82 16.9896 175.406 17.125 174.922 17.125C174.708 17.125 174.516 17.1094 174.344 17.0781C174.172 17.0521 174.018 17.0104 173.883 16.9531V15.5078C173.971 15.5391 174.068 15.5651 174.172 15.5859C174.276 15.6068 174.383 15.6172 174.492 15.6172C174.685 15.6172 174.862 15.5391 175.023 15.3828C175.19 15.2214 175.344 14.9688 175.484 14.625C175.625 14.2812 175.753 13.8281 175.867 13.2656C175.982 12.6979 176.086 12.0104 176.18 11.2031C176.273 10.3906 176.357 9.4401 176.43 8.35156H182.258V17ZM188.281 8.1875C189.375 8.1875 190.201 8.42969 190.758 8.91406C191.32 9.39844 191.602 10.1536 191.602 11.1797V17H190.297L189.945 15.7734H189.883C189.638 16.0859 189.385 16.3438 189.125 16.5469C188.865 16.75 188.562 16.901 188.219 17C187.88 17.1042 187.466 17.1562 186.977 17.1562C186.461 17.1562 186 17.0625 185.594 16.875C185.188 16.6823 184.867 16.3906 184.633 16C184.398 15.6094 184.281 15.1146 184.281 14.5156C184.281 13.625 184.612 12.9557 185.273 12.5078C185.94 12.0599 186.945 11.8125 188.289 11.7656L189.789 11.7109V11.2578C189.789 10.6589 189.648 10.2318 189.367 9.97656C189.091 9.72135 188.701 9.59375 188.195 9.59375C187.763 9.59375 187.344 9.65625 186.938 9.78125C186.531 9.90625 186.135 10.0599 185.75 10.2422L185.156 8.94531C185.578 8.72135 186.057 8.53906 186.594 8.39844C187.135 8.25781 187.698 8.1875 188.281 8.1875ZM189.781 12.8672L188.664 12.9062C187.747 12.9375 187.104 13.0938 186.734 13.375C186.365 13.6562 186.18 14.0417 186.18 14.5312C186.18 14.9583 186.307 15.2708 186.562 15.4688C186.818 15.6615 187.154 15.7578 187.57 15.7578C188.206 15.7578 188.732 15.5781 189.148 15.2188C189.57 14.8542 189.781 14.3203 189.781 13.6172V12.8672ZM204.195 8.35156V17H202.492V12.0625C202.492 11.7396 202.5 11.4167 202.516 11.0938C202.531 10.7708 202.552 10.4635 202.578 10.1719H202.531L199.898 17H198.453L195.844 10.1641H195.789C195.815 10.4609 195.833 10.7682 195.844 11.0859C195.859 11.4036 195.867 11.7474 195.867 12.1172V17H194.164V8.35156H196.727L199.195 14.8125L201.703 8.35156H204.195Z" fill="#140A32"/>
<line x1="39" y1="26.5" x2="206" y2="26.5" stroke="#33836E"/>
</svg>
