<svg width="230" height="27" viewBox="0 0 230 27" fill="none" xmlns="http://www.w3.org/2000/svg">
<path d="M8 8.5H4C2.89543 8.5 2 9.39543 2 10.5V20.5C2 21.6046 2.89543 22.5 4 22.5H20C21.1046 22.5 22 21.6046 22 20.5V10.5C22 9.39543 21.1046 8.5 20 8.5H16M8 8.5V5.1C8 4.76863 8.26863 4.5 8.6 4.5H15.4C15.7314 4.5 16 4.76863 16 5.1V8.5M8 8.5H16" stroke="#33836E" stroke-width="1.5"/>
<path d="M40.5 17V5.57812H49.2734V17H47.4141V7.17188H42.375V17H40.5ZM59.7656 12.6562C59.7656 13.375 59.6719 14.013 59.4844 14.5703C59.2969 15.1276 59.0234 15.599 58.6641 15.9844C58.3047 16.3646 57.8724 16.6562 57.3672 16.8594C56.862 17.0573 56.2917 17.1562 55.6562 17.1562C55.0625 17.1562 54.5182 17.0573 54.0234 16.8594C53.5286 16.6562 53.099 16.3646 52.7344 15.9844C52.375 15.599 52.0964 15.1276 51.8984 14.5703C51.7005 14.013 51.6016 13.375 51.6016 12.6562C51.6016 11.7031 51.7656 10.8958 52.0938 10.2344C52.4271 9.56771 52.901 9.0599 53.5156 8.71094C54.1302 8.36198 54.862 8.1875 55.7109 8.1875C56.5078 8.1875 57.2109 8.36198 57.8203 8.71094C58.4297 9.0599 58.9062 9.56771 59.25 10.2344C59.5938 10.901 59.7656 11.7083 59.7656 12.6562ZM53.4922 12.6562C53.4922 13.2865 53.5677 13.8255 53.7188 14.2734C53.875 14.7214 54.1146 15.0651 54.4375 15.3047C54.7604 15.5391 55.1771 15.6562 55.6875 15.6562C56.1979 15.6562 56.6146 15.5391 56.9375 15.3047C57.2604 15.0651 57.4974 14.7214 57.6484 14.2734C57.7995 13.8255 57.875 13.2865 57.875 12.6562C57.875 12.026 57.7995 11.4922 57.6484 11.0547C57.4974 10.612 57.2604 10.276 56.9375 10.0469C56.6146 9.8125 56.1953 9.69531 55.6797 9.69531C54.9193 9.69531 54.3646 9.95052 54.0156 10.4609C53.6667 10.9714 53.4922 11.7031 53.4922 12.6562ZM72.5625 9.79688H69.7188V17H67.8906V9.79688H65.0625V8.35156H72.5625V9.79688ZM78.6719 8.1875C79.6979 8.1875 80.5208 8.5625 81.1406 9.3125C81.7656 10.0625 82.0781 11.1771 82.0781 12.6562C82.0781 13.6354 81.9323 14.4609 81.6406 15.1328C81.3542 15.7995 80.9505 16.3047 80.4297 16.6484C79.9141 16.987 79.3125 17.1562 78.625 17.1562C78.1875 17.1562 77.8073 17.099 77.4844 16.9844C77.1615 16.8698 76.8854 16.7214 76.6562 16.5391C76.4271 16.3516 76.2344 16.1484 76.0781 15.9297H75.9688C75.9948 16.138 76.0182 16.3698 76.0391 16.625C76.0651 16.875 76.0781 17.1042 76.0781 17.3125V20.8359H74.2344V8.35156H75.7344L75.9922 9.54688H76.0781C76.2396 9.30208 76.4349 9.07552 76.6641 8.86719C76.8984 8.65885 77.1797 8.49479 77.5078 8.375C77.8411 8.25 78.2292 8.1875 78.6719 8.1875ZM78.1797 9.6875C77.6745 9.6875 77.2682 9.78906 76.9609 9.99219C76.6589 10.1901 76.4375 10.4896 76.2969 10.8906C76.1615 11.2917 76.0885 11.7943 76.0781 12.3984V12.6562C76.0781 13.2969 76.1432 13.8411 76.2734 14.2891C76.4089 14.7318 76.6302 15.0703 76.9375 15.3047C77.25 15.5339 77.6719 15.6484 78.2031 15.6484C78.651 15.6484 79.0208 15.526 79.3125 15.2812C79.6094 15.0365 79.8307 14.6875 79.9766 14.2344C80.1224 13.7812 80.1953 13.2474 80.1953 12.6328C80.1953 11.7005 80.0286 10.9766 79.6953 10.4609C79.3672 9.94531 78.862 9.6875 78.1797 9.6875ZM82.8984 8.35156H84.8984L86.6719 13.2891C86.75 13.513 86.8203 13.7344 86.8828 13.9531C86.9505 14.1667 87.0078 14.3776 87.0547 14.5859C87.1068 14.7943 87.1484 15.0026 87.1797 15.2109H87.2266C87.2786 14.9401 87.3516 14.638 87.4453 14.3047C87.5443 13.9661 87.6536 13.6276 87.7734 13.2891L89.4766 8.35156H91.4531L87.7422 18.1875C87.5286 18.75 87.2656 19.2292 86.9531 19.625C86.6458 20.026 86.2812 20.3281 85.8594 20.5312C85.4375 20.7396 84.9557 20.8438 84.4141 20.8438C84.1536 20.8438 83.9271 20.8281 83.7344 20.7969C83.5417 20.7708 83.3776 20.7422 83.2422 20.7109V19.2422C83.3516 19.2682 83.4896 19.2917 83.6562 19.3125C83.8229 19.3333 83.9948 19.3438 84.1719 19.3438C84.5 19.3438 84.7839 19.2786 85.0234 19.1484C85.263 19.0182 85.4661 18.8333 85.6328 18.5938C85.7995 18.3594 85.9375 18.0911 86.0469 17.7891L86.3516 16.9766L82.8984 8.35156ZM99.8281 8.35156V15.5781H101.078V20.0469H99.3828V17H93.4141V20.0469H91.7188V15.5781H92.4219C92.8594 14.9427 93.224 14.2344 93.5156 13.4531C93.8125 12.6719 94.0417 11.849 94.2031 10.9844C94.3698 10.1146 94.474 9.23698 94.5156 8.35156H99.8281ZM98.0078 9.75781H96.0938C96.0312 10.4609 95.9245 11.1615 95.7734 11.8594C95.6224 12.5521 95.4271 13.2161 95.1875 13.8516C94.9531 14.4818 94.6719 15.0573 94.3438 15.5781H98.0078V9.75781ZM110.344 12.6562C110.344 13.375 110.25 14.013 110.062 14.5703C109.875 15.1276 109.602 15.599 109.242 15.9844C108.883 16.3646 108.451 16.6562 107.945 16.8594C107.44 17.0573 106.87 17.1562 106.234 17.1562C105.641 17.1562 105.096 17.0573 104.602 16.8594C104.107 16.6562 103.677 16.3646 103.312 15.9844C102.953 15.599 102.674 15.1276 102.477 14.5703C102.279 14.013 102.18 13.375 102.18 12.6562C102.18 11.7031 102.344 10.8958 102.672 10.2344C103.005 9.56771 103.479 9.0599 104.094 8.71094C104.708 8.36198 105.44 8.1875 106.289 8.1875C107.086 8.1875 107.789 8.36198 108.398 8.71094C109.008 9.0599 109.484 9.56771 109.828 10.2344C110.172 10.901 110.344 11.7083 110.344 12.6562ZM104.07 12.6562C104.07 13.2865 104.146 13.8255 104.297 14.2734C104.453 14.7214 104.693 15.0651 105.016 15.3047C105.339 15.5391 105.755 15.6562 106.266 15.6562C106.776 15.6562 107.193 15.5391 107.516 15.3047C107.839 15.0651 108.076 14.7214 108.227 14.2734C108.378 13.8255 108.453 13.2865 108.453 12.6562C108.453 12.026 108.378 11.4922 108.227 11.0547C108.076 10.612 107.839 10.276 107.516 10.0469C107.193 9.8125 106.773 9.69531 106.258 9.69531C105.497 9.69531 104.943 9.95052 104.594 10.4609C104.245 10.9714 104.07 11.7031 104.07 12.6562ZM119.727 10.5703C119.727 11.0703 119.573 11.4792 119.266 11.7969C118.964 12.1094 118.547 12.3151 118.016 12.4141V12.4766C118.583 12.5495 119.057 12.75 119.438 13.0781C119.818 13.4062 120.008 13.862 120.008 14.4453C120.008 14.9401 119.883 15.3802 119.633 15.7656C119.388 16.1458 118.997 16.4479 118.461 16.6719C117.93 16.8906 117.234 17 116.375 17H112.453V8.35156H116.359C117.005 8.35156 117.581 8.42188 118.086 8.5625C118.596 8.70312 118.997 8.9349 119.289 9.25781C119.581 9.58073 119.727 10.0182 119.727 10.5703ZM118.094 14.3828C118.094 13.9557 117.93 13.6484 117.602 13.4609C117.279 13.2734 116.805 13.1797 116.18 13.1797H114.297V15.6484H116.219C116.802 15.6484 117.26 15.5521 117.594 15.3594C117.927 15.1615 118.094 14.8359 118.094 14.3828ZM117.859 10.7344C117.859 10.3958 117.732 10.1458 117.477 9.98438C117.221 9.81771 116.82 9.73438 116.273 9.73438H114.297V11.8281H116.023C116.628 11.8281 117.083 11.7422 117.391 11.5703C117.703 11.3932 117.859 11.1146 117.859 10.7344ZM122.078 17V8.35156H123.922V11.8047H125.664C126.477 11.8047 127.146 11.8984 127.672 12.0859C128.198 12.2682 128.589 12.5443 128.844 12.9141C129.099 13.2839 129.227 13.7474 129.227 14.3047C129.227 14.8516 129.104 15.3281 128.859 15.7344C128.615 16.1354 128.232 16.4479 127.711 16.6719C127.19 16.8906 126.508 17 125.664 17H122.078ZM123.922 15.6484H125.539C126.091 15.6484 126.536 15.5495 126.875 15.3516C127.219 15.1484 127.391 14.8151 127.391 14.3516C127.391 13.9193 127.232 13.6146 126.914 13.4375C126.602 13.2552 126.143 13.1641 125.539 13.1641H123.922V15.6484ZM130.562 17V8.35156H132.406V17H130.562ZM145.055 8.35156V17H143.352V12.0625C143.352 11.7396 143.359 11.4167 143.375 11.0938C143.391 10.7708 143.411 10.4635 143.438 10.1719H143.391L140.758 17H139.312L136.703 10.1641H136.648C136.674 10.4609 136.693 10.7682 136.703 11.0859C136.719 11.4036 136.727 11.7474 136.727 12.1172V17H135.023V8.35156H137.586L140.055 14.8125L142.562 8.35156H145.055ZM159.086 10.5703C159.086 11.0703 158.932 11.4792 158.625 11.7969C158.323 12.1094 157.906 12.3151 157.375 12.4141V12.4766C157.943 12.5495 158.417 12.75 158.797 13.0781C159.177 13.4062 159.367 13.862 159.367 14.4453C159.367 14.9401 159.242 15.3802 158.992 15.7656C158.747 16.1458 158.357 16.4479 157.82 16.6719C157.289 16.8906 156.594 17 155.734 17H151.812V8.35156H155.719C156.365 8.35156 156.94 8.42188 157.445 8.5625C157.956 8.70312 158.357 8.9349 158.648 9.25781C158.94 9.58073 159.086 10.0182 159.086 10.5703ZM157.453 14.3828C157.453 13.9557 157.289 13.6484 156.961 13.4609C156.638 13.2734 156.164 13.1797 155.539 13.1797H153.656V15.6484H155.578C156.161 15.6484 156.62 15.5521 156.953 15.3594C157.286 15.1615 157.453 14.8359 157.453 14.3828ZM157.219 10.7344C157.219 10.3958 157.091 10.1458 156.836 9.98438C156.581 9.81771 156.18 9.73438 155.633 9.73438H153.656V11.8281H155.383C155.987 11.8281 156.443 11.7422 156.75 11.5703C157.062 11.3932 157.219 11.1146 157.219 10.7344ZM169.094 12.6562C169.094 13.375 169 14.013 168.812 14.5703C168.625 15.1276 168.352 15.599 167.992 15.9844C167.633 16.3646 167.201 16.6562 166.695 16.8594C166.19 17.0573 165.62 17.1562 164.984 17.1562C164.391 17.1562 163.846 17.0573 163.352 16.8594C162.857 16.6562 162.427 16.3646 162.062 15.9844C161.703 15.599 161.424 15.1276 161.227 14.5703C161.029 14.013 160.93 13.375 160.93 12.6562C160.93 11.7031 161.094 10.8958 161.422 10.2344C161.755 9.56771 162.229 9.0599 162.844 8.71094C163.458 8.36198 164.19 8.1875 165.039 8.1875C165.836 8.1875 166.539 8.36198 167.148 8.71094C167.758 9.0599 168.234 9.56771 168.578 10.2344C168.922 10.901 169.094 11.7083 169.094 12.6562ZM162.82 12.6562C162.82 13.2865 162.896 13.8255 163.047 14.2734C163.203 14.7214 163.443 15.0651 163.766 15.3047C164.089 15.5391 164.505 15.6562 165.016 15.6562C165.526 15.6562 165.943 15.5391 166.266 15.3047C166.589 15.0651 166.826 14.7214 166.977 14.2734C167.128 13.8255 167.203 13.2865 167.203 12.6562C167.203 12.026 167.128 11.4922 166.977 11.0547C166.826 10.612 166.589 10.276 166.266 10.0469C165.943 9.8125 165.523 9.69531 165.008 9.69531C164.247 9.69531 163.693 9.95052 163.344 10.4609C162.995 10.9714 162.82 11.7031 162.82 12.6562ZM178.758 8.35156V17H176.906V9.80469H173.047V17H171.203V8.35156H178.758ZM185.828 8.1875C186.854 8.1875 187.677 8.5625 188.297 9.3125C188.922 10.0625 189.234 11.1771 189.234 12.6562C189.234 13.6354 189.089 14.4609 188.797 15.1328C188.51 15.7995 188.107 16.3047 187.586 16.6484C187.07 16.987 186.469 17.1562 185.781 17.1562C185.344 17.1562 184.964 17.099 184.641 16.9844C184.318 16.8698 184.042 16.7214 183.812 16.5391C183.583 16.3516 183.391 16.1484 183.234 15.9297H183.125C183.151 16.138 183.174 16.3698 183.195 16.625C183.221 16.875 183.234 17.1042 183.234 17.3125V20.8359H181.391V8.35156H182.891L183.148 9.54688H183.234C183.396 9.30208 183.591 9.07552 183.82 8.86719C184.055 8.65885 184.336 8.49479 184.664 8.375C184.997 8.25 185.385 8.1875 185.828 8.1875ZM185.336 9.6875C184.831 9.6875 184.424 9.78906 184.117 9.99219C183.815 10.1901 183.594 10.4896 183.453 10.8906C183.318 11.2917 183.245 11.7943 183.234 12.3984V12.6562C183.234 13.2969 183.299 13.8411 183.43 14.2891C183.565 14.7318 183.786 15.0703 184.094 15.3047C184.406 15.5339 184.828 15.6484 185.359 15.6484C185.807 15.6484 186.177 15.526 186.469 15.2812C186.766 15.0365 186.987 14.6875 187.133 14.2344C187.279 13.7812 187.352 13.2474 187.352 12.6328C187.352 11.7005 187.185 10.9766 186.852 10.4609C186.523 9.94531 186.018 9.6875 185.336 9.6875ZM199.016 12.6562C199.016 13.375 198.922 14.013 198.734 14.5703C198.547 15.1276 198.273 15.599 197.914 15.9844C197.555 16.3646 197.122 16.6562 196.617 16.8594C196.112 17.0573 195.542 17.1562 194.906 17.1562C194.312 17.1562 193.768 17.0573 193.273 16.8594C192.779 16.6562 192.349 16.3646 191.984 15.9844C191.625 15.599 191.346 15.1276 191.148 14.5703C190.951 14.013 190.852 13.375 190.852 12.6562C190.852 11.7031 191.016 10.8958 191.344 10.2344C191.677 9.56771 192.151 9.0599 192.766 8.71094C193.38 8.36198 194.112 8.1875 194.961 8.1875C195.758 8.1875 196.461 8.36198 197.07 8.71094C197.68 9.0599 198.156 9.56771 198.5 10.2344C198.844 10.901 199.016 11.7083 199.016 12.6562ZM192.742 12.6562C192.742 13.2865 192.818 13.8255 192.969 14.2734C193.125 14.7214 193.365 15.0651 193.688 15.3047C194.01 15.5391 194.427 15.6562 194.938 15.6562C195.448 15.6562 195.865 15.5391 196.188 15.3047C196.51 15.0651 196.747 14.7214 196.898 14.2734C197.049 13.8255 197.125 13.2865 197.125 12.6562C197.125 12.026 197.049 11.4922 196.898 11.0547C196.747 10.612 196.51 10.276 196.188 10.0469C195.865 9.8125 195.445 9.69531 194.93 9.69531C194.169 9.69531 193.615 9.95052 193.266 10.4609C192.917 10.9714 192.742 11.7031 192.742 12.6562ZM204.609 17.1562C203.792 17.1562 203.083 16.9974 202.484 16.6797C201.885 16.362 201.424 15.875 201.102 15.2188C200.779 14.5625 200.617 13.7292 200.617 12.7188C200.617 11.6667 200.794 10.8073 201.148 10.1406C201.503 9.47396 201.992 8.98177 202.617 8.66406C203.247 8.34635 203.969 8.1875 204.781 8.1875C205.297 8.1875 205.763 8.23958 206.18 8.34375C206.602 8.44271 206.958 8.5651 207.25 8.71094L206.703 10.1797C206.385 10.0495 206.06 9.9401 205.727 9.85156C205.393 9.76302 205.073 9.71875 204.766 9.71875C204.26 9.71875 203.839 9.83073 203.5 10.0547C203.167 10.2786 202.917 10.612 202.75 11.0547C202.589 11.4974 202.508 12.0469 202.508 12.7031C202.508 13.3385 202.591 13.875 202.758 14.3125C202.924 14.7448 203.172 15.0729 203.5 15.2969C203.828 15.5156 204.232 15.625 204.711 15.625C205.185 15.625 205.609 15.5677 205.984 15.4531C206.359 15.3385 206.714 15.1901 207.047 15.0078V16.6016C206.719 16.7891 206.367 16.9271 205.992 17.0156C205.617 17.1094 205.156 17.1562 204.609 17.1562ZM212.469 8.1875C213.562 8.1875 214.388 8.42969 214.945 8.91406C215.508 9.39844 215.789 10.1536 215.789 11.1797V17H214.484L214.133 15.7734H214.07C213.826 16.0859 213.573 16.3438 213.312 16.5469C213.052 16.75 212.75 16.901 212.406 17C212.068 17.1042 211.654 17.1562 211.164 17.1562C210.648 17.1562 210.188 17.0625 209.781 16.875C209.375 16.6823 209.055 16.3906 208.82 16C208.586 15.6094 208.469 15.1146 208.469 14.5156C208.469 13.625 208.799 12.9557 209.461 12.5078C210.128 12.0599 211.133 11.8125 212.477 11.7656L213.977 11.7109V11.2578C213.977 10.6589 213.836 10.2318 213.555 9.97656C213.279 9.72135 212.888 9.59375 212.383 9.59375C211.951 9.59375 211.531 9.65625 211.125 9.78125C210.719 9.90625 210.323 10.0599 209.938 10.2422L209.344 8.94531C209.766 8.72135 210.245 8.53906 210.781 8.39844C211.323 8.25781 211.885 8.1875 212.469 8.1875ZM213.969 12.8672L212.852 12.9062C211.935 12.9375 211.292 13.0938 210.922 13.375C210.552 13.6562 210.367 14.0417 210.367 14.5312C210.367 14.9583 210.495 15.2708 210.75 15.4688C211.005 15.6615 211.341 15.7578 211.758 15.7578C212.393 15.7578 212.919 15.5781 213.336 15.2188C213.758 14.8542 213.969 14.3203 213.969 13.6172V12.8672ZM228.383 8.35156V17H226.68V12.0625C226.68 11.7396 226.688 11.4167 226.703 11.0938C226.719 10.7708 226.74 10.4635 226.766 10.1719H226.719L224.086 17H222.641L220.031 10.1641H219.977C220.003 10.4609 220.021 10.7682 220.031 11.0859C220.047 11.4036 220.055 11.7474 220.055 12.1172V17H218.352V8.35156H220.914L223.383 14.8125L225.891 8.35156H228.383Z" fill="#140A32"/>
<line x1="39" y1="26.5" x2="230" y2="26.5" stroke="#33836E"/>
</svg>
